<svg xmlns="http://www.w3.org/2000/svg"
  width="900" height="75.5" viewBox="0 0 900 75.5"
  role="img" aria-labelledby="title desc">
  <title id="title">flow in fire, matrix, and arcane themes</title>
  <desc id="desc">Sequential setup composition.</desc>
  <rect width="900" height="75.5" fill="#05070c"/>
  <rect x="0" y="0" width="300" height="75.5" fill="#080d16"/>
  <g font-family="SFMono-Regular, 'SF Mono', 'JetBrains Mono', Menlo, Monaco, 'Cascadia Mono', 'DejaVu Sans Mono', Consolas, 'Liberation Mono', 'Courier New', monospace" font-size="11.5" font-variant-ligatures="none" xml:space="preserve">
    <text x="16" y="27.5" fill="#eef4ff" font-weight="400">R</text>
    <text x="23.3" y="27.5" fill="#eef4ff" font-weight="400">e</text>
    <text x="30.5" y="27.5" fill="#eef4ff" font-weight="400">v</text>
    <text x="37.8" y="27.5" fill="#eef4ff" font-weight="400">i</text>
    <text x="45" y="27.5" fill="#eef4ff" font-weight="400">e</text>
    <text x="52.3" y="27.5" fill="#eef4ff" font-weight="400">w</text>
    <text x="66.8" y="27.5" fill="#eef4ff" font-weight="400">N</text>
    <text x="74" y="27.5" fill="#eef4ff" font-weight="400">e</text>
    <text x="81.3" y="27.5" fill="#eef4ff" font-weight="400">w</text>
    <text x="95.8" y="27.5" fill="#eef4ff" font-weight="400">p</text>
    <text x="103" y="27.5" fill="#eef4ff" font-weight="400">r</text>
    <text x="110.3" y="27.5" fill="#eef4ff" font-weight="400">o</text>
    <text x="117.5" y="27.5" fill="#eef4ff" font-weight="400">j</text>
    <text x="124.8" y="27.5" fill="#eef4ff" font-weight="400">e</text>
    <text x="132" y="27.5" fill="#eef4ff" font-weight="400">c</text>
    <text x="139.3" y="27.5" fill="#eef4ff" font-weight="400">t</text>
    <text x="16" y="42" fill="#eef4ff" font-weight="400">N</text>
    <text x="23.3" y="42" fill="#eef4ff" font-weight="400">a</text>
    <text x="30.5" y="42" fill="#eef4ff" font-weight="400">m</text>
    <text x="37.8" y="42" fill="#eef4ff" font-weight="400">e</text>
    <text x="45" y="42" fill="#eef4ff" font-weight="400">:</text>
    <text x="59.5" y="42" fill="#eef4ff" font-weight="400">t</text>
    <text x="66.8" y="42" fill="#eef4ff" font-weight="400">e</text>
    <text x="74" y="42" fill="#eef4ff" font-weight="400">r</text>
    <text x="81.3" y="42" fill="#eef4ff" font-weight="400">m</text>
    <text x="88.5" y="42" fill="#eef4ff" font-weight="400">i</text>
    <text x="95.8" y="42" fill="#eef4ff" font-weight="400">n</text>
    <text x="103" y="42" fill="#eef4ff" font-weight="400">i</text>
    <text x="110.3" y="42" fill="#eef4ff" font-weight="400">c</text>
    <text x="117.5" y="42" fill="#eef4ff" font-weight="400">e</text>
    <text x="124.8" y="42" fill="#eef4ff" font-weight="400">_</text>
    <text x="132" y="42" fill="#eef4ff" font-weight="400">a</text>
    <text x="139.3" y="42" fill="#eef4ff" font-weight="400">p</text>
    <text x="146.5" y="42" fill="#eef4ff" font-weight="400">p</text>
    <text x="16" y="56.5" fill="#eef4ff" font-weight="400">T</text>
    <text x="23.3" y="56.5" fill="#eef4ff" font-weight="400">e</text>
    <text x="30.5" y="56.5" fill="#eef4ff" font-weight="400">m</text>
    <text x="37.8" y="56.5" fill="#eef4ff" font-weight="400">p</text>
    <text x="45" y="56.5" fill="#eef4ff" font-weight="400">l</text>
    <text x="52.3" y="56.5" fill="#eef4ff" font-weight="400">a</text>
    <text x="59.5" y="56.5" fill="#eef4ff" font-weight="400">t</text>
    <text x="66.8" y="56.5" fill="#eef4ff" font-weight="400">e</text>
    <text x="74" y="56.5" fill="#eef4ff" font-weight="400">:</text>
    <text x="88.5" y="56.5" fill="#eef4ff" font-weight="400">C</text>
    <text x="95.8" y="56.5" fill="#eef4ff" font-weight="400">L</text>
    <text x="103" y="56.5" fill="#eef4ff" font-weight="400">I</text>
  </g>
  <rect x="300" y="0" width="300" height="75.5" fill="#0b111d"/>
  <line x1="300" y1="0" x2="300" y2="75.5" stroke="#ffffff" stroke-opacity="0.14"/>
  <g font-family="SFMono-Regular, 'SF Mono', 'JetBrains Mono', Menlo, Monaco, 'Cascadia Mono', 'DejaVu Sans Mono', Consolas, 'Liberation Mono', 'Courier New', monospace" font-size="11.5" font-variant-ligatures="none" xml:space="preserve">
    <text x="316" y="27.5" fill="#eef4ff" font-weight="400">R</text>
    <text x="323.3" y="27.5" fill="#eef4ff" font-weight="400">e</text>
    <text x="330.5" y="27.5" fill="#eef4ff" font-weight="400">v</text>
    <text x="337.8" y="27.5" fill="#eef4ff" font-weight="400">i</text>
    <text x="345" y="27.5" fill="#eef4ff" font-weight="400">e</text>
    <text x="352.3" y="27.5" fill="#eef4ff" font-weight="400">w</text>
    <text x="366.8" y="27.5" fill="#eef4ff" font-weight="400">N</text>
    <text x="374" y="27.5" fill="#eef4ff" font-weight="400">e</text>
    <text x="381.3" y="27.5" fill="#eef4ff" font-weight="400">w</text>
    <text x="395.8" y="27.5" fill="#eef4ff" font-weight="400">p</text>
    <text x="403" y="27.5" fill="#eef4ff" font-weight="400">r</text>
    <text x="410.3" y="27.5" fill="#eef4ff" font-weight="400">o</text>
    <text x="417.5" y="27.5" fill="#eef4ff" font-weight="400">j</text>
    <text x="424.8" y="27.5" fill="#eef4ff" font-weight="400">e</text>
    <text x="432" y="27.5" fill="#eef4ff" font-weight="400">c</text>
    <text x="439.3" y="27.5" fill="#eef4ff" font-weight="400">t</text>
    <text x="316" y="42" fill="#eef4ff" font-weight="400">N</text>
    <text x="323.3" y="42" fill="#eef4ff" font-weight="400">a</text>
    <text x="330.5" y="42" fill="#eef4ff" font-weight="400">m</text>
    <text x="337.8" y="42" fill="#eef4ff" font-weight="400">e</text>
    <text x="345" y="42" fill="#eef4ff" font-weight="400">:</text>
    <text x="359.5" y="42" fill="#eef4ff" font-weight="400">t</text>
    <text x="366.8" y="42" fill="#eef4ff" font-weight="400">e</text>
    <text x="374" y="42" fill="#eef4ff" font-weight="400">r</text>
    <text x="381.3" y="42" fill="#eef4ff" font-weight="400">m</text>
    <text x="388.5" y="42" fill="#eef4ff" font-weight="400">i</text>
    <text x="395.8" y="42" fill="#eef4ff" font-weight="400">n</text>
    <text x="403" y="42" fill="#eef4ff" font-weight="400">i</text>
    <text x="410.3" y="42" fill="#eef4ff" font-weight="400">c</text>
    <text x="417.5" y="42" fill="#eef4ff" font-weight="400">e</text>
    <text x="424.8" y="42" fill="#eef4ff" font-weight="400">_</text>
    <text x="432" y="42" fill="#eef4ff" font-weight="400">a</text>
    <text x="439.3" y="42" fill="#eef4ff" font-weight="400">p</text>
    <text x="446.5" y="42" fill="#eef4ff" font-weight="400">p</text>
    <text x="316" y="56.5" fill="#eef4ff" font-weight="400">T</text>
    <text x="323.3" y="56.5" fill="#eef4ff" font-weight="400">e</text>
    <text x="330.5" y="56.5" fill="#eef4ff" font-weight="400">m</text>
    <text x="337.8" y="56.5" fill="#eef4ff" font-weight="400">p</text>
    <text x="345" y="56.5" fill="#eef4ff" font-weight="400">l</text>
    <text x="352.3" y="56.5" fill="#eef4ff" font-weight="400">a</text>
    <text x="359.5" y="56.5" fill="#eef4ff" font-weight="400">t</text>
    <text x="366.8" y="56.5" fill="#eef4ff" font-weight="400">e</text>
    <text x="374" y="56.5" fill="#eef4ff" font-weight="400">:</text>
    <text x="388.5" y="56.5" fill="#eef4ff" font-weight="400">C</text>
    <text x="395.8" y="56.5" fill="#eef4ff" font-weight="400">L</text>
    <text x="403" y="56.5" fill="#eef4ff" font-weight="400">I</text>
  </g>
  <rect x="600" y="0" width="300" height="75.5" fill="#080d16"/>
  <line x1="600" y1="0" x2="600" y2="75.5" stroke="#ffffff" stroke-opacity="0.14"/>
  <g font-family="SFMono-Regular, 'SF Mono', 'JetBrains Mono', Menlo, Monaco, 'Cascadia Mono', 'DejaVu Sans Mono', Consolas, 'Liberation Mono', 'Courier New', monospace" font-size="11.5" font-variant-ligatures="none" xml:space="preserve">
    <text x="616" y="27.5" fill="#eef4ff" font-weight="400">R</text>
    <text x="623.3" y="27.5" fill="#eef4ff" font-weight="400">e</text>
    <text x="630.5" y="27.5" fill="#eef4ff" font-weight="400">v</text>
    <text x="637.8" y="27.5" fill="#eef4ff" font-weight="400">i</text>
    <text x="645" y="27.5" fill="#eef4ff" font-weight="400">e</text>
    <text x="652.3" y="27.5" fill="#eef4ff" font-weight="400">w</text>
    <text x="666.8" y="27.5" fill="#eef4ff" font-weight="400">N</text>
    <text x="674" y="27.5" fill="#eef4ff" font-weight="400">e</text>
    <text x="681.3" y="27.5" fill="#eef4ff" font-weight="400">w</text>
    <text x="695.8" y="27.5" fill="#eef4ff" font-weight="400">p</text>
    <text x="703" y="27.5" fill="#eef4ff" font-weight="400">r</text>
    <text x="710.3" y="27.5" fill="#eef4ff" font-weight="400">o</text>
    <text x="717.5" y="27.5" fill="#eef4ff" font-weight="400">j</text>
    <text x="724.8" y="27.5" fill="#eef4ff" font-weight="400">e</text>
    <text x="732" y="27.5" fill="#eef4ff" font-weight="400">c</text>
    <text x="739.3" y="27.5" fill="#eef4ff" font-weight="400">t</text>
    <text x="616" y="42" fill="#eef4ff" font-weight="400">N</text>
    <text x="623.3" y="42" fill="#eef4ff" font-weight="400">a</text>
    <text x="630.5" y="42" fill="#eef4ff" font-weight="400">m</text>
    <text x="637.8" y="42" fill="#eef4ff" font-weight="400">e</text>
    <text x="645" y="42" fill="#eef4ff" font-weight="400">:</text>
    <text x="659.5" y="42" fill="#eef4ff" font-weight="400">t</text>
    <text x="666.8" y="42" fill="#eef4ff" font-weight="400">e</text>
    <text x="674" y="42" fill="#eef4ff" font-weight="400">r</text>
    <text x="681.3" y="42" fill="#eef4ff" font-weight="400">m</text>
    <text x="688.5" y="42" fill="#eef4ff" font-weight="400">i</text>
    <text x="695.8" y="42" fill="#eef4ff" font-weight="400">n</text>
    <text x="703" y="42" fill="#eef4ff" font-weight="400">i</text>
    <text x="710.3" y="42" fill="#eef4ff" font-weight="400">c</text>
    <text x="717.5" y="42" fill="#eef4ff" font-weight="400">e</text>
    <text x="724.8" y="42" fill="#eef4ff" font-weight="400">_</text>
    <text x="732" y="42" fill="#eef4ff" font-weight="400">a</text>
    <text x="739.3" y="42" fill="#eef4ff" font-weight="400">p</text>
    <text x="746.5" y="42" fill="#eef4ff" font-weight="400">p</text>
    <text x="616" y="56.5" fill="#eef4ff" font-weight="400">T</text>
    <text x="623.3" y="56.5" fill="#eef4ff" font-weight="400">e</text>
    <text x="630.5" y="56.5" fill="#eef4ff" font-weight="400">m</text>
    <text x="637.8" y="56.5" fill="#eef4ff" font-weight="400">p</text>
    <text x="645" y="56.5" fill="#eef4ff" font-weight="400">l</text>
    <text x="652.3" y="56.5" fill="#eef4ff" font-weight="400">a</text>
    <text x="659.5" y="56.5" fill="#eef4ff" font-weight="400">t</text>
    <text x="666.8" y="56.5" fill="#eef4ff" font-weight="400">e</text>
    <text x="674" y="56.5" fill="#eef4ff" font-weight="400">:</text>
    <text x="688.5" y="56.5" fill="#eef4ff" font-weight="400">C</text>
    <text x="695.8" y="56.5" fill="#eef4ff" font-weight="400">L</text>
    <text x="703" y="56.5" fill="#eef4ff" font-weight="400">I</text>
  </g>
</svg>
