<svg xmlns="http://www.w3.org/2000/svg"
  width="1053" height="162.5" viewBox="0 0 1053 162.5"
  role="img" aria-labelledby="title desc">
  <title id="title">pathPicker in fire, matrix, and arcane themes</title>
  <desc id="desc">Directory and path selection.</desc>
  <rect width="1053" height="162.5" fill="#05070c"/>
  <rect x="0" y="0" width="351" height="162.5" fill="#080d16"/>
  <g font-family="SFMono-Regular, 'SF Mono', 'JetBrains Mono', Menlo, Monaco, 'Cascadia Mono', 'DejaVu Sans Mono', Consolas, 'Liberation Mono', 'Courier New', monospace" font-size="11.5" font-variant-ligatures="none" xml:space="preserve">
    <text x="16" y="27.5" fill="#ef4444" font-weight="800">╔</text>
    <text x="23.3" y="27.5" fill="#ef4444" font-weight="800">═</text>
    <text x="37.8" y="27.5" fill="#ef4444" font-weight="800">O</text>
    <text x="45" y="27.5" fill="#ef4444" font-weight="800">u</text>
    <text x="52.3" y="27.5" fill="#ef4444" font-weight="800">t</text>
    <text x="59.5" y="27.5" fill="#ef4444" font-weight="800">p</text>
    <text x="66.8" y="27.5" fill="#ef4444" font-weight="800">u</text>
    <text x="74" y="27.5" fill="#ef4444" font-weight="800">t</text>
    <text x="88.5" y="27.5" fill="#ef4444" font-weight="800">f</text>
    <text x="95.8" y="27.5" fill="#ef4444" font-weight="800">o</text>
    <text x="103" y="27.5" fill="#ef4444" font-weight="800">l</text>
    <text x="110.3" y="27.5" fill="#ef4444" font-weight="800">d</text>
    <text x="117.5" y="27.5" fill="#ef4444" font-weight="800">e</text>
    <text x="124.8" y="27.5" fill="#ef4444" font-weight="800">r</text>
    <text x="139.3" y="27.5" fill="#ef4444" font-weight="800">═</text>
    <text x="146.5" y="27.5" fill="#ef4444" font-weight="800">╗</text>
    <text x="16" y="42" fill="#6b7280" font-weight="400">║</text>
    <text x="30.5" y="42" fill="#ef4444" font-weight="400">P</text>
    <text x="37.8" y="42" fill="#ef4444" font-weight="400">a</text>
    <text x="45" y="42" fill="#ef4444" font-weight="400">t</text>
    <text x="52.3" y="42" fill="#ef4444" font-weight="400">h</text>
    <text x="59.5" y="42" fill="#ef4444" font-weight="400">:</text>
    <text x="74" y="42" fill="#eef4ff" font-weight="400">t</text>
    <text x="81.3" y="42" fill="#eef4ff" font-weight="400">e</text>
    <text x="88.5" y="42" fill="#eef4ff" font-weight="400">r</text>
    <text x="95.8" y="42" fill="#eef4ff" font-weight="400">m</text>
    <text x="103" y="42" fill="#eef4ff" font-weight="400">i</text>
    <text x="110.3" y="42" fill="#eef4ff" font-weight="400">n</text>
    <text x="117.5" y="42" fill="#eef4ff" font-weight="400">i</text>
    <text x="124.8" y="42" fill="#eef4ff" font-weight="400">c</text>
    <text x="132" y="42" fill="#eef4ff" font-weight="400">e</text>
    <text x="139.3" y="42" fill="#eef4ff" font-weight="400">_</text>
    <text x="146.5" y="42" fill="#eef4ff" font-weight="400">v</text>
    <text x="153.8" y="42" fill="#eef4ff" font-weight="400">i</text>
    <text x="161" y="42" fill="#eef4ff" font-weight="400">s</text>
    <text x="168.3" y="42" fill="#eef4ff" font-weight="400">u</text>
    <text x="175.5" y="42" fill="#eef4ff" font-weight="400">a</text>
    <text x="182.8" y="42" fill="#eef4ff" font-weight="400">l</text>
    <text x="190" y="42" fill="#eef4ff" font-weight="400">_</text>
    <text x="197.3" y="42" fill="#eef4ff" font-weight="400">d</text>
    <text x="204.5" y="42" fill="#eef4ff" font-weight="400">e</text>
    <text x="211.8" y="42" fill="#eef4ff" font-weight="400">m</text>
    <text x="219" y="42" fill="#eef4ff" font-weight="400">o</text>
    <text x="226.3" y="42" fill="#eef4ff" font-weight="400">/</text>
    <text x="233.5" y="42" fill="#eef4ff" font-weight="400">s</text>
    <text x="240.8" y="42" fill="#eef4ff" font-weight="400">a</text>
    <text x="248" y="42" fill="#eef4ff" font-weight="400">m</text>
    <text x="255.3" y="42" fill="#eef4ff" font-weight="400">p</text>
    <text x="262.5" y="42" fill="#eef4ff" font-weight="400">l</text>
    <text x="269.8" y="42" fill="#eef4ff" font-weight="400">e</text>
    <text x="277" y="42" fill="#eef4ff" font-weight="400">_</text>
    <text x="284.3" y="42" fill="#eef4ff" font-weight="400">p</text>
    <text x="291.5" y="42" fill="#eef4ff" font-weight="400">r</text>
    <text x="298.8" y="42" fill="#eef4ff" font-weight="400">o</text>
    <text x="306" y="42" fill="#eef4ff" font-weight="400">j</text>
    <text x="313.3" y="42" fill="#eef4ff" font-weight="400">e</text>
    <text x="320.5" y="42" fill="#eef4ff" font-weight="400">c</text>
    <text x="327.8" y="42" fill="#eef4ff" font-weight="400">t</text>
    <text x="16" y="56.5" fill="#6b7280" font-weight="400">╟</text>
    <text x="23.3" y="56.5" fill="#6b7280" font-weight="400">═</text>
    <text x="30.5" y="56.5" fill="#6b7280" font-weight="400">═</text>
    <text x="37.8" y="56.5" fill="#6b7280" font-weight="400">═</text>
    <text x="45" y="56.5" fill="#6b7280" font-weight="400">═</text>
    <text x="52.3" y="56.5" fill="#6b7280" font-weight="400">═</text>
    <text x="59.5" y="56.5" fill="#6b7280" font-weight="400">═</text>
    <text x="66.8" y="56.5" fill="#6b7280" font-weight="400">═</text>
    <text x="74" y="56.5" fill="#6b7280" font-weight="400">═</text>
    <text x="81.3" y="56.5" fill="#6b7280" font-weight="400">═</text>
    <text x="88.5" y="56.5" fill="#6b7280" font-weight="400">═</text>
    <text x="95.8" y="56.5" fill="#6b7280" font-weight="400">═</text>
    <text x="103" y="56.5" fill="#6b7280" font-weight="400">═</text>
    <text x="110.3" y="56.5" fill="#6b7280" font-weight="400">═</text>
    <text x="117.5" y="56.5" fill="#6b7280" font-weight="400">═</text>
    <text x="124.8" y="56.5" fill="#6b7280" font-weight="400">═</text>
    <text x="132" y="56.5" fill="#6b7280" font-weight="400">═</text>
    <text x="139.3" y="56.5" fill="#6b7280" font-weight="400">═</text>
    <text x="146.5" y="56.5" fill="#6b7280" font-weight="400">═</text>
    <text x="153.8" y="56.5" fill="#6b7280" font-weight="400">═</text>
    <text x="16" y="71" fill="#6b7280" font-weight="400">║</text>
    <text x="45" y="71" fill="#eef4ff" font-weight="400">↩</text>
    <text x="59.5" y="71" fill="#eef4ff" font-weight="400">.</text>
    <text x="66.8" y="71" fill="#eef4ff" font-weight="400">.</text>
    <text x="16" y="85.5" fill="#6b7280" font-weight="400">║</text>
    <rect x="30.5" y="74" width="7.3" height="14.5" fill="#ef4444" />
    <text x="30.5" y="85.5" fill="#08111f" font-weight="400">➤</text>
    <text x="45" y="85.5" fill="#eef4ff" font-weight="400">✓</text>
    <text x="59.5" y="85.5" fill="#eef4ff" font-weight="400">S</text>
    <text x="66.8" y="85.5" fill="#eef4ff" font-weight="400">e</text>
    <text x="74" y="85.5" fill="#eef4ff" font-weight="400">l</text>
    <text x="81.3" y="85.5" fill="#eef4ff" font-weight="400">e</text>
    <text x="88.5" y="85.5" fill="#eef4ff" font-weight="400">c</text>
    <text x="95.8" y="85.5" fill="#eef4ff" font-weight="400">t</text>
    <text x="110.3" y="85.5" fill="#eef4ff" font-weight="400">t</text>
    <text x="117.5" y="85.5" fill="#eef4ff" font-weight="400">h</text>
    <text x="124.8" y="85.5" fill="#eef4ff" font-weight="400">i</text>
    <text x="132" y="85.5" fill="#eef4ff" font-weight="400">s</text>
    <text x="146.5" y="85.5" fill="#eef4ff" font-weight="400">d</text>
    <text x="153.8" y="85.5" fill="#eef4ff" font-weight="400">i</text>
    <text x="161" y="85.5" fill="#eef4ff" font-weight="400">r</text>
    <text x="168.3" y="85.5" fill="#eef4ff" font-weight="400">e</text>
    <text x="175.5" y="85.5" fill="#eef4ff" font-weight="400">c</text>
    <text x="182.8" y="85.5" fill="#eef4ff" font-weight="400">t</text>
    <text x="190" y="85.5" fill="#eef4ff" font-weight="400">o</text>
    <text x="197.3" y="85.5" fill="#eef4ff" font-weight="400">r</text>
    <text x="204.5" y="85.5" fill="#eef4ff" font-weight="400">y</text>
    <text x="16" y="100" fill="#6b7280" font-weight="400">║</text>
    <text x="45" y="100" fill="#eef4ff" font-weight="400">▸</text>
    <text x="59.5" y="100" fill="#eef4ff" font-weight="400">d</text>
    <text x="66.8" y="100" fill="#eef4ff" font-weight="400">o</text>
    <text x="74" y="100" fill="#eef4ff" font-weight="400">c</text>
    <text x="81.3" y="100" fill="#eef4ff" font-weight="400">s</text>
    <text x="16" y="114.5" fill="#6b7280" font-weight="400">║</text>
    <text x="45" y="114.5" fill="#eef4ff" font-weight="400">▸</text>
    <text x="59.5" y="114.5" fill="#eef4ff" font-weight="400">l</text>
    <text x="66.8" y="114.5" fill="#eef4ff" font-weight="400">i</text>
    <text x="74" y="114.5" fill="#eef4ff" font-weight="400">b</text>
    <text x="16" y="129" fill="#6b7280" font-weight="400">║</text>
    <text x="45" y="129" fill="#eef4ff" font-weight="400">▸</text>
    <text x="59.5" y="129" fill="#eef4ff" font-weight="400">t</text>
    <text x="66.8" y="129" fill="#eef4ff" font-weight="400">e</text>
    <text x="74" y="129" fill="#eef4ff" font-weight="400">s</text>
    <text x="81.3" y="129" fill="#eef4ff" font-weight="400">t</text>
    <text x="16" y="143.5" fill="#6b7280" font-weight="400">╚</text>
    <text x="23.3" y="143.5" fill="#6b7280" font-weight="400">═</text>
    <text x="30.5" y="143.5" fill="#6b7280" font-weight="400">═</text>
    <text x="37.8" y="143.5" fill="#6b7280" font-weight="400">═</text>
    <text x="45" y="143.5" fill="#6b7280" font-weight="400">═</text>
    <text x="52.3" y="143.5" fill="#6b7280" font-weight="400">═</text>
    <text x="59.5" y="143.5" fill="#6b7280" font-weight="400">═</text>
    <text x="66.8" y="143.5" fill="#6b7280" font-weight="400">═</text>
    <text x="74" y="143.5" fill="#6b7280" font-weight="400">═</text>
    <text x="81.3" y="143.5" fill="#6b7280" font-weight="400">═</text>
    <text x="88.5" y="143.5" fill="#6b7280" font-weight="400">═</text>
    <text x="95.8" y="143.5" fill="#6b7280" font-weight="400">═</text>
    <text x="103" y="143.5" fill="#6b7280" font-weight="400">═</text>
    <text x="110.3" y="143.5" fill="#6b7280" font-weight="400">═</text>
    <text x="117.5" y="143.5" fill="#6b7280" font-weight="400">═</text>
    <text x="124.8" y="143.5" fill="#6b7280" font-weight="400">═</text>
    <text x="132" y="143.5" fill="#6b7280" font-weight="400">═</text>
    <text x="139.3" y="143.5" fill="#6b7280" font-weight="400">═</text>
    <text x="146.5" y="143.5" fill="#6b7280" font-weight="400">═</text>
  </g>
  <rect x="351" y="0" width="351" height="162.5" fill="#0b111d"/>
  <line x1="351" y1="0" x2="351" y2="162.5" stroke="#ffffff" stroke-opacity="0.14"/>
  <g font-family="SFMono-Regular, 'SF Mono', 'JetBrains Mono', Menlo, Monaco, 'Cascadia Mono', 'DejaVu Sans Mono', Consolas, 'Liberation Mono', 'Courier New', monospace" font-size="11.5" font-variant-ligatures="none" xml:space="preserve">
    <text x="367" y="27.5" fill="#22c55e" font-weight="800">╭</text>
    <text x="374.3" y="27.5" fill="#22c55e" font-weight="800">─</text>
    <text x="388.8" y="27.5" fill="#22c55e" font-weight="800">O</text>
    <text x="396" y="27.5" fill="#22c55e" font-weight="800">u</text>
    <text x="403.3" y="27.5" fill="#22c55e" font-weight="800">t</text>
    <text x="410.5" y="27.5" fill="#22c55e" font-weight="800">p</text>
    <text x="417.8" y="27.5" fill="#22c55e" font-weight="800">u</text>
    <text x="425" y="27.5" fill="#22c55e" font-weight="800">t</text>
    <text x="439.5" y="27.5" fill="#22c55e" font-weight="800">f</text>
    <text x="446.8" y="27.5" fill="#22c55e" font-weight="800">o</text>
    <text x="454" y="27.5" fill="#22c55e" font-weight="800">l</text>
    <text x="461.3" y="27.5" fill="#22c55e" font-weight="800">d</text>
    <text x="468.5" y="27.5" fill="#22c55e" font-weight="800">e</text>
    <text x="475.8" y="27.5" fill="#22c55e" font-weight="800">r</text>
    <text x="490.3" y="27.5" fill="#22c55e" font-weight="800">─</text>
    <text x="497.5" y="27.5" fill="#22c55e" font-weight="800">╮</text>
    <text x="367" y="42" fill="#6b7280" font-weight="400">│</text>
    <text x="381.5" y="42" fill="#22c55e" font-weight="400">P</text>
    <text x="388.8" y="42" fill="#22c55e" font-weight="400">a</text>
    <text x="396" y="42" fill="#22c55e" font-weight="400">t</text>
    <text x="403.3" y="42" fill="#22c55e" font-weight="400">h</text>
    <text x="410.5" y="42" fill="#22c55e" font-weight="400">:</text>
    <text x="425" y="42" fill="#eef4ff" font-weight="400">t</text>
    <text x="432.3" y="42" fill="#eef4ff" font-weight="400">e</text>
    <text x="439.5" y="42" fill="#eef4ff" font-weight="400">r</text>
    <text x="446.8" y="42" fill="#eef4ff" font-weight="400">m</text>
    <text x="454" y="42" fill="#eef4ff" font-weight="400">i</text>
    <text x="461.3" y="42" fill="#eef4ff" font-weight="400">n</text>
    <text x="468.5" y="42" fill="#eef4ff" font-weight="400">i</text>
    <text x="475.8" y="42" fill="#eef4ff" font-weight="400">c</text>
    <text x="483" y="42" fill="#eef4ff" font-weight="400">e</text>
    <text x="490.3" y="42" fill="#eef4ff" font-weight="400">_</text>
    <text x="497.5" y="42" fill="#eef4ff" font-weight="400">v</text>
    <text x="504.8" y="42" fill="#eef4ff" font-weight="400">i</text>
    <text x="512" y="42" fill="#eef4ff" font-weight="400">s</text>
    <text x="519.3" y="42" fill="#eef4ff" font-weight="400">u</text>
    <text x="526.5" y="42" fill="#eef4ff" font-weight="400">a</text>
    <text x="533.8" y="42" fill="#eef4ff" font-weight="400">l</text>
    <text x="541" y="42" fill="#eef4ff" font-weight="400">_</text>
    <text x="548.3" y="42" fill="#eef4ff" font-weight="400">d</text>
    <text x="555.5" y="42" fill="#eef4ff" font-weight="400">e</text>
    <text x="562.8" y="42" fill="#eef4ff" font-weight="400">m</text>
    <text x="570" y="42" fill="#eef4ff" font-weight="400">o</text>
    <text x="577.3" y="42" fill="#eef4ff" font-weight="400">/</text>
    <text x="584.5" y="42" fill="#eef4ff" font-weight="400">s</text>
    <text x="591.8" y="42" fill="#eef4ff" font-weight="400">a</text>
    <text x="599" y="42" fill="#eef4ff" font-weight="400">m</text>
    <text x="606.3" y="42" fill="#eef4ff" font-weight="400">p</text>
    <text x="613.5" y="42" fill="#eef4ff" font-weight="400">l</text>
    <text x="620.8" y="42" fill="#eef4ff" font-weight="400">e</text>
    <text x="628" y="42" fill="#eef4ff" font-weight="400">_</text>
    <text x="635.3" y="42" fill="#eef4ff" font-weight="400">p</text>
    <text x="642.5" y="42" fill="#eef4ff" font-weight="400">r</text>
    <text x="649.8" y="42" fill="#eef4ff" font-weight="400">o</text>
    <text x="657" y="42" fill="#eef4ff" font-weight="400">j</text>
    <text x="664.3" y="42" fill="#eef4ff" font-weight="400">e</text>
    <text x="671.5" y="42" fill="#eef4ff" font-weight="400">c</text>
    <text x="678.8" y="42" fill="#eef4ff" font-weight="400">t</text>
    <text x="367" y="56.5" fill="#6b7280" font-weight="400">├</text>
    <text x="374.3" y="56.5" fill="#6b7280" font-weight="400">─</text>
    <text x="381.5" y="56.5" fill="#6b7280" font-weight="400">─</text>
    <text x="388.8" y="56.5" fill="#6b7280" font-weight="400">─</text>
    <text x="396" y="56.5" fill="#6b7280" font-weight="400">─</text>
    <text x="403.3" y="56.5" fill="#6b7280" font-weight="400">─</text>
    <text x="410.5" y="56.5" fill="#6b7280" font-weight="400">─</text>
    <text x="417.8" y="56.5" fill="#6b7280" font-weight="400">─</text>
    <text x="425" y="56.5" fill="#6b7280" font-weight="400">─</text>
    <text x="432.3" y="56.5" fill="#6b7280" font-weight="400">─</text>
    <text x="439.5" y="56.5" fill="#6b7280" font-weight="400">─</text>
    <text x="446.8" y="56.5" fill="#6b7280" font-weight="400">─</text>
    <text x="454" y="56.5" fill="#6b7280" font-weight="400">─</text>
    <text x="461.3" y="56.5" fill="#6b7280" font-weight="400">─</text>
    <text x="468.5" y="56.5" fill="#6b7280" font-weight="400">─</text>
    <text x="475.8" y="56.5" fill="#6b7280" font-weight="400">─</text>
    <text x="483" y="56.5" fill="#6b7280" font-weight="400">─</text>
    <text x="490.3" y="56.5" fill="#6b7280" font-weight="400">─</text>
    <text x="497.5" y="56.5" fill="#6b7280" font-weight="400">─</text>
    <text x="504.8" y="56.5" fill="#6b7280" font-weight="400">─</text>
    <text x="367" y="71" fill="#6b7280" font-weight="400">│</text>
    <text x="396" y="71" fill="#eef4ff" font-weight="400">↩</text>
    <text x="410.5" y="71" fill="#eef4ff" font-weight="400">.</text>
    <text x="417.8" y="71" fill="#eef4ff" font-weight="400">.</text>
    <text x="367" y="85.5" fill="#6b7280" font-weight="400">│</text>
    <rect x="381.5" y="74" width="7.3" height="14.5" fill="#22c55e" />
    <text x="381.5" y="85.5" fill="#08111f" font-weight="400">❯</text>
    <text x="396" y="85.5" fill="#eef4ff" font-weight="400">✓</text>
    <text x="410.5" y="85.5" fill="#eef4ff" font-weight="400">S</text>
    <text x="417.8" y="85.5" fill="#eef4ff" font-weight="400">e</text>
    <text x="425" y="85.5" fill="#eef4ff" font-weight="400">l</text>
    <text x="432.3" y="85.5" fill="#eef4ff" font-weight="400">e</text>
    <text x="439.5" y="85.5" fill="#eef4ff" font-weight="400">c</text>
    <text x="446.8" y="85.5" fill="#eef4ff" font-weight="400">t</text>
    <text x="461.3" y="85.5" fill="#eef4ff" font-weight="400">t</text>
    <text x="468.5" y="85.5" fill="#eef4ff" font-weight="400">h</text>
    <text x="475.8" y="85.5" fill="#eef4ff" font-weight="400">i</text>
    <text x="483" y="85.5" fill="#eef4ff" font-weight="400">s</text>
    <text x="497.5" y="85.5" fill="#eef4ff" font-weight="400">d</text>
    <text x="504.8" y="85.5" fill="#eef4ff" font-weight="400">i</text>
    <text x="512" y="85.5" fill="#eef4ff" font-weight="400">r</text>
    <text x="519.3" y="85.5" fill="#eef4ff" font-weight="400">e</text>
    <text x="526.5" y="85.5" fill="#eef4ff" font-weight="400">c</text>
    <text x="533.8" y="85.5" fill="#eef4ff" font-weight="400">t</text>
    <text x="541" y="85.5" fill="#eef4ff" font-weight="400">o</text>
    <text x="548.3" y="85.5" fill="#eef4ff" font-weight="400">r</text>
    <text x="555.5" y="85.5" fill="#eef4ff" font-weight="400">y</text>
    <text x="367" y="100" fill="#6b7280" font-weight="400">│</text>
    <text x="396" y="100" fill="#eef4ff" font-weight="400">▸</text>
    <text x="410.5" y="100" fill="#eef4ff" font-weight="400">d</text>
    <text x="417.8" y="100" fill="#eef4ff" font-weight="400">o</text>
    <text x="425" y="100" fill="#eef4ff" font-weight="400">c</text>
    <text x="432.3" y="100" fill="#eef4ff" font-weight="400">s</text>
    <text x="367" y="114.5" fill="#6b7280" font-weight="400">│</text>
    <text x="396" y="114.5" fill="#eef4ff" font-weight="400">▸</text>
    <text x="410.5" y="114.5" fill="#eef4ff" font-weight="400">l</text>
    <text x="417.8" y="114.5" fill="#eef4ff" font-weight="400">i</text>
    <text x="425" y="114.5" fill="#eef4ff" font-weight="400">b</text>
    <text x="367" y="129" fill="#6b7280" font-weight="400">│</text>
    <text x="396" y="129" fill="#eef4ff" font-weight="400">▸</text>
    <text x="410.5" y="129" fill="#eef4ff" font-weight="400">t</text>
    <text x="417.8" y="129" fill="#eef4ff" font-weight="400">e</text>
    <text x="425" y="129" fill="#eef4ff" font-weight="400">s</text>
    <text x="432.3" y="129" fill="#eef4ff" font-weight="400">t</text>
    <text x="367" y="143.5" fill="#6b7280" font-weight="400">╰</text>
    <text x="374.3" y="143.5" fill="#6b7280" font-weight="400">─</text>
    <text x="381.5" y="143.5" fill="#6b7280" font-weight="400">─</text>
    <text x="388.8" y="143.5" fill="#6b7280" font-weight="400">─</text>
    <text x="396" y="143.5" fill="#6b7280" font-weight="400">─</text>
    <text x="403.3" y="143.5" fill="#6b7280" font-weight="400">─</text>
    <text x="410.5" y="143.5" fill="#6b7280" font-weight="400">─</text>
    <text x="417.8" y="143.5" fill="#6b7280" font-weight="400">─</text>
    <text x="425" y="143.5" fill="#6b7280" font-weight="400">─</text>
    <text x="432.3" y="143.5" fill="#6b7280" font-weight="400">─</text>
    <text x="439.5" y="143.5" fill="#6b7280" font-weight="400">─</text>
    <text x="446.8" y="143.5" fill="#6b7280" font-weight="400">─</text>
    <text x="454" y="143.5" fill="#6b7280" font-weight="400">─</text>
    <text x="461.3" y="143.5" fill="#6b7280" font-weight="400">─</text>
    <text x="468.5" y="143.5" fill="#6b7280" font-weight="400">─</text>
    <text x="475.8" y="143.5" fill="#6b7280" font-weight="400">─</text>
    <text x="483" y="143.5" fill="#6b7280" font-weight="400">─</text>
    <text x="490.3" y="143.5" fill="#6b7280" font-weight="400">─</text>
    <text x="497.5" y="143.5" fill="#6b7280" font-weight="400">─</text>
  </g>
  <rect x="702" y="0" width="351" height="162.5" fill="#080d16"/>
  <line x1="702" y1="0" x2="702" y2="162.5" stroke="#ffffff" stroke-opacity="0.14"/>
  <g font-family="SFMono-Regular, 'SF Mono', 'JetBrains Mono', Menlo, Monaco, 'Cascadia Mono', 'DejaVu Sans Mono', Consolas, 'Liberation Mono', 'Courier New', monospace" font-size="11.5" font-variant-ligatures="none" xml:space="preserve">
    <text x="718" y="27.5" fill="#875fff" font-weight="800">⸢</text>
    <text x="725.3" y="27.5" fill="#875fff" font-weight="800">─</text>
    <text x="739.8" y="27.5" fill="#875fff" font-weight="800">O</text>
    <text x="747" y="27.5" fill="#875fff" font-weight="800">u</text>
    <text x="754.3" y="27.5" fill="#875fff" font-weight="800">t</text>
    <text x="761.5" y="27.5" fill="#875fff" font-weight="800">p</text>
    <text x="768.8" y="27.5" fill="#875fff" font-weight="800">u</text>
    <text x="776" y="27.5" fill="#875fff" font-weight="800">t</text>
    <text x="790.5" y="27.5" fill="#875fff" font-weight="800">f</text>
    <text x="797.8" y="27.5" fill="#875fff" font-weight="800">o</text>
    <text x="805" y="27.5" fill="#875fff" font-weight="800">l</text>
    <text x="812.3" y="27.5" fill="#875fff" font-weight="800">d</text>
    <text x="819.5" y="27.5" fill="#875fff" font-weight="800">e</text>
    <text x="826.8" y="27.5" fill="#875fff" font-weight="800">r</text>
    <text x="841.3" y="27.5" fill="#875fff" font-weight="800">─</text>
    <text x="848.5" y="27.5" fill="#875fff" font-weight="800">⸣</text>
    <text x="718" y="42" fill="#6b7280" font-weight="400">⁞</text>
    <text x="732.5" y="42" fill="#af87ff" font-weight="400">P</text>
    <text x="739.8" y="42" fill="#af87ff" font-weight="400">a</text>
    <text x="747" y="42" fill="#af87ff" font-weight="400">t</text>
    <text x="754.3" y="42" fill="#af87ff" font-weight="400">h</text>
    <text x="761.5" y="42" fill="#af87ff" font-weight="400">:</text>
    <text x="776" y="42" fill="#eef4ff" font-weight="400">t</text>
    <text x="783.3" y="42" fill="#eef4ff" font-weight="400">e</text>
    <text x="790.5" y="42" fill="#eef4ff" font-weight="400">r</text>
    <text x="797.8" y="42" fill="#eef4ff" font-weight="400">m</text>
    <text x="805" y="42" fill="#eef4ff" font-weight="400">i</text>
    <text x="812.3" y="42" fill="#eef4ff" font-weight="400">n</text>
    <text x="819.5" y="42" fill="#eef4ff" font-weight="400">i</text>
    <text x="826.8" y="42" fill="#eef4ff" font-weight="400">c</text>
    <text x="834" y="42" fill="#eef4ff" font-weight="400">e</text>
    <text x="841.3" y="42" fill="#eef4ff" font-weight="400">_</text>
    <text x="848.5" y="42" fill="#eef4ff" font-weight="400">v</text>
    <text x="855.8" y="42" fill="#eef4ff" font-weight="400">i</text>
    <text x="863" y="42" fill="#eef4ff" font-weight="400">s</text>
    <text x="870.3" y="42" fill="#eef4ff" font-weight="400">u</text>
    <text x="877.5" y="42" fill="#eef4ff" font-weight="400">a</text>
    <text x="884.8" y="42" fill="#eef4ff" font-weight="400">l</text>
    <text x="892" y="42" fill="#eef4ff" font-weight="400">_</text>
    <text x="899.3" y="42" fill="#eef4ff" font-weight="400">d</text>
    <text x="906.5" y="42" fill="#eef4ff" font-weight="400">e</text>
    <text x="913.8" y="42" fill="#eef4ff" font-weight="400">m</text>
    <text x="921" y="42" fill="#eef4ff" font-weight="400">o</text>
    <text x="928.3" y="42" fill="#eef4ff" font-weight="400">/</text>
    <text x="935.5" y="42" fill="#eef4ff" font-weight="400">s</text>
    <text x="942.8" y="42" fill="#eef4ff" font-weight="400">a</text>
    <text x="950" y="42" fill="#eef4ff" font-weight="400">m</text>
    <text x="957.3" y="42" fill="#eef4ff" font-weight="400">p</text>
    <text x="964.5" y="42" fill="#eef4ff" font-weight="400">l</text>
    <text x="971.8" y="42" fill="#eef4ff" font-weight="400">e</text>
    <text x="979" y="42" fill="#eef4ff" font-weight="400">_</text>
    <text x="986.3" y="42" fill="#eef4ff" font-weight="400">p</text>
    <text x="993.5" y="42" fill="#eef4ff" font-weight="400">r</text>
    <text x="1000.8" y="42" fill="#eef4ff" font-weight="400">o</text>
    <text x="1008" y="42" fill="#eef4ff" font-weight="400">j</text>
    <text x="1015.3" y="42" fill="#eef4ff" font-weight="400">e</text>
    <text x="1022.5" y="42" fill="#eef4ff" font-weight="400">c</text>
    <text x="1029.8" y="42" fill="#eef4ff" font-weight="400">t</text>
    <text x="718" y="56.5" fill="#6b7280" font-weight="400">⊢</text>
    <text x="725.3" y="56.5" fill="#6b7280" font-weight="400">─</text>
    <text x="732.5" y="56.5" fill="#6b7280" font-weight="400">─</text>
    <text x="739.8" y="56.5" fill="#6b7280" font-weight="400">─</text>
    <text x="747" y="56.5" fill="#6b7280" font-weight="400">─</text>
    <text x="754.3" y="56.5" fill="#6b7280" font-weight="400">─</text>
    <text x="761.5" y="56.5" fill="#6b7280" font-weight="400">─</text>
    <text x="768.8" y="56.5" fill="#6b7280" font-weight="400">─</text>
    <text x="776" y="56.5" fill="#6b7280" font-weight="400">─</text>
    <text x="783.3" y="56.5" fill="#6b7280" font-weight="400">─</text>
    <text x="790.5" y="56.5" fill="#6b7280" font-weight="400">─</text>
    <text x="797.8" y="56.5" fill="#6b7280" font-weight="400">─</text>
    <text x="805" y="56.5" fill="#6b7280" font-weight="400">─</text>
    <text x="812.3" y="56.5" fill="#6b7280" font-weight="400">─</text>
    <text x="819.5" y="56.5" fill="#6b7280" font-weight="400">─</text>
    <text x="826.8" y="56.5" fill="#6b7280" font-weight="400">─</text>
    <text x="834" y="56.5" fill="#6b7280" font-weight="400">─</text>
    <text x="841.3" y="56.5" fill="#6b7280" font-weight="400">─</text>
    <text x="848.5" y="56.5" fill="#6b7280" font-weight="400">─</text>
    <text x="855.8" y="56.5" fill="#6b7280" font-weight="400">─</text>
    <text x="718" y="71" fill="#6b7280" font-weight="400">⁞</text>
    <text x="747" y="71" fill="#eef4ff" font-weight="400">↩</text>
    <text x="761.5" y="71" fill="#eef4ff" font-weight="400">.</text>
    <text x="768.8" y="71" fill="#eef4ff" font-weight="400">.</text>
    <text x="718" y="85.5" fill="#6b7280" font-weight="400">⁞</text>
    <rect x="732.5" y="74" width="7.3" height="14.5" fill="#af87ff" />
    <text x="732.5" y="85.5" fill="#08111f" font-weight="400">⊳</text>
    <text x="747" y="85.5" fill="#eef4ff" font-weight="400">✓</text>
    <text x="761.5" y="85.5" fill="#eef4ff" font-weight="400">S</text>
    <text x="768.8" y="85.5" fill="#eef4ff" font-weight="400">e</text>
    <text x="776" y="85.5" fill="#eef4ff" font-weight="400">l</text>
    <text x="783.3" y="85.5" fill="#eef4ff" font-weight="400">e</text>
    <text x="790.5" y="85.5" fill="#eef4ff" font-weight="400">c</text>
    <text x="797.8" y="85.5" fill="#eef4ff" font-weight="400">t</text>
    <text x="812.3" y="85.5" fill="#eef4ff" font-weight="400">t</text>
    <text x="819.5" y="85.5" fill="#eef4ff" font-weight="400">h</text>
    <text x="826.8" y="85.5" fill="#eef4ff" font-weight="400">i</text>
    <text x="834" y="85.5" fill="#eef4ff" font-weight="400">s</text>
    <text x="848.5" y="85.5" fill="#eef4ff" font-weight="400">d</text>
    <text x="855.8" y="85.5" fill="#eef4ff" font-weight="400">i</text>
    <text x="863" y="85.5" fill="#eef4ff" font-weight="400">r</text>
    <text x="870.3" y="85.5" fill="#eef4ff" font-weight="400">e</text>
    <text x="877.5" y="85.5" fill="#eef4ff" font-weight="400">c</text>
    <text x="884.8" y="85.5" fill="#eef4ff" font-weight="400">t</text>
    <text x="892" y="85.5" fill="#eef4ff" font-weight="400">o</text>
    <text x="899.3" y="85.5" fill="#eef4ff" font-weight="400">r</text>
    <text x="906.5" y="85.5" fill="#eef4ff" font-weight="400">y</text>
    <text x="718" y="100" fill="#6b7280" font-weight="400">⁞</text>
    <text x="747" y="100" fill="#eef4ff" font-weight="400">▸</text>
    <text x="761.5" y="100" fill="#eef4ff" font-weight="400">d</text>
    <text x="768.8" y="100" fill="#eef4ff" font-weight="400">o</text>
    <text x="776" y="100" fill="#eef4ff" font-weight="400">c</text>
    <text x="783.3" y="100" fill="#eef4ff" font-weight="400">s</text>
    <text x="718" y="114.5" fill="#6b7280" font-weight="400">⁞</text>
    <text x="747" y="114.5" fill="#eef4ff" font-weight="400">▸</text>
    <text x="761.5" y="114.5" fill="#eef4ff" font-weight="400">l</text>
    <text x="768.8" y="114.5" fill="#eef4ff" font-weight="400">i</text>
    <text x="776" y="114.5" fill="#eef4ff" font-weight="400">b</text>
    <text x="718" y="129" fill="#6b7280" font-weight="400">⁞</text>
    <text x="747" y="129" fill="#eef4ff" font-weight="400">▸</text>
    <text x="761.5" y="129" fill="#eef4ff" font-weight="400">t</text>
    <text x="768.8" y="129" fill="#eef4ff" font-weight="400">e</text>
    <text x="776" y="129" fill="#eef4ff" font-weight="400">s</text>
    <text x="783.3" y="129" fill="#eef4ff" font-weight="400">t</text>
    <text x="718" y="143.5" fill="#6b7280" font-weight="400">⸤</text>
    <text x="725.3" y="143.5" fill="#6b7280" font-weight="400">─</text>
    <text x="732.5" y="143.5" fill="#6b7280" font-weight="400">─</text>
    <text x="739.8" y="143.5" fill="#6b7280" font-weight="400">─</text>
    <text x="747" y="143.5" fill="#6b7280" font-weight="400">─</text>
    <text x="754.3" y="143.5" fill="#6b7280" font-weight="400">─</text>
    <text x="761.5" y="143.5" fill="#6b7280" font-weight="400">─</text>
    <text x="768.8" y="143.5" fill="#6b7280" font-weight="400">─</text>
    <text x="776" y="143.5" fill="#6b7280" font-weight="400">─</text>
    <text x="783.3" y="143.5" fill="#6b7280" font-weight="400">─</text>
    <text x="790.5" y="143.5" fill="#6b7280" font-weight="400">─</text>
    <text x="797.8" y="143.5" fill="#6b7280" font-weight="400">─</text>
    <text x="805" y="143.5" fill="#6b7280" font-weight="400">─</text>
    <text x="812.3" y="143.5" fill="#6b7280" font-weight="400">─</text>
    <text x="819.5" y="143.5" fill="#6b7280" font-weight="400">─</text>
    <text x="826.8" y="143.5" fill="#6b7280" font-weight="400">─</text>
    <text x="834" y="143.5" fill="#6b7280" font-weight="400">─</text>
    <text x="841.3" y="143.5" fill="#6b7280" font-weight="400">─</text>
    <text x="848.5" y="143.5" fill="#6b7280" font-weight="400">─</text>
  </g>
</svg>
