<svg xmlns="http://www.w3.org/2000/svg"
  width="1227" height="177" viewBox="0 0 1227 177"
  role="img" aria-labelledby="title desc">
  <title id="title">themeDemo in fire, matrix, and arcane themes</title>
  <desc id="desc">Interactive theme gallery.</desc>
  <rect width="1227" height="177" fill="#05070c"/>
  <rect x="0" y="0" width="409" height="177" fill="#080d16"/>
  <g font-family="SFMono-Regular, 'SF Mono', 'JetBrains Mono', Menlo, Monaco, 'Cascadia Mono', 'DejaVu Sans Mono', Consolas, 'Liberation Mono', 'Courier New', monospace" font-size="11.5" font-variant-ligatures="none" xml:space="preserve">
    <text x="16" y="27.5" fill="#ef4444" font-weight="800">╔</text>
    <text x="23.3" y="27.5" fill="#ef4444" font-weight="800">═</text>
    <text x="37.8" y="27.5" fill="#ef4444" font-weight="800">T</text>
    <text x="45" y="27.5" fill="#ef4444" font-weight="800">h</text>
    <text x="52.3" y="27.5" fill="#ef4444" font-weight="800">e</text>
    <text x="59.5" y="27.5" fill="#ef4444" font-weight="800">m</text>
    <text x="66.8" y="27.5" fill="#ef4444" font-weight="800">e</text>
    <text x="81.3" y="27.5" fill="#ef4444" font-weight="800">P</text>
    <text x="88.5" y="27.5" fill="#ef4444" font-weight="800">r</text>
    <text x="95.8" y="27.5" fill="#ef4444" font-weight="800">e</text>
    <text x="103" y="27.5" fill="#ef4444" font-weight="800">v</text>
    <text x="110.3" y="27.5" fill="#ef4444" font-weight="800">i</text>
    <text x="117.5" y="27.5" fill="#ef4444" font-weight="800">e</text>
    <text x="124.8" y="27.5" fill="#ef4444" font-weight="800">w</text>
    <text x="139.3" y="27.5" fill="#ef4444" font-weight="800">═</text>
    <text x="146.5" y="27.5" fill="#ef4444" font-weight="800">╗</text>
    <text x="16" y="42" fill="#6b7280" font-weight="400">║</text>
    <text x="30.5" y="42" fill="#eef4ff" font-weight="400" opacity=".62">T</text>
    <text x="37.8" y="42" fill="#eef4ff" font-weight="400" opacity=".62">h</text>
    <text x="45" y="42" fill="#eef4ff" font-weight="400" opacity=".62">e</text>
    <text x="52.3" y="42" fill="#eef4ff" font-weight="400" opacity=".62">m</text>
    <text x="59.5" y="42" fill="#eef4ff" font-weight="400" opacity=".62">e</text>
    <text x="66.8" y="42" fill="#eef4ff" font-weight="400" opacity=".62">:</text>
    <text x="81.3" y="42" fill="#ef4444" font-weight="400">F</text>
    <text x="88.5" y="42" fill="#ef4444" font-weight="400">i</text>
    <text x="95.8" y="42" fill="#ef4444" font-weight="400">r</text>
    <text x="103" y="42" fill="#ef4444" font-weight="400">e</text>
    <text x="16" y="56.5" fill="#6b7280" font-weight="400">║</text>
    <text x="30.5" y="56.5" fill="#eef4ff" font-weight="400">A</text>
    <text x="37.8" y="56.5" fill="#eef4ff" font-weight="400">r</text>
    <text x="45" y="56.5" fill="#eef4ff" font-weight="400">r</text>
    <text x="52.3" y="56.5" fill="#eef4ff" font-weight="400">o</text>
    <text x="59.5" y="56.5" fill="#eef4ff" font-weight="400">w</text>
    <text x="66.8" y="56.5" fill="#eef4ff" font-weight="400">:</text>
    <text x="81.3" y="56.5" fill="#ef4444" font-weight="400">➤</text>
    <text x="16" y="71" fill="#6b7280" font-weight="400">║</text>
    <text x="30.5" y="71" fill="#eef4ff" font-weight="400">C</text>
    <text x="37.8" y="71" fill="#eef4ff" font-weight="400">h</text>
    <text x="45" y="71" fill="#eef4ff" font-weight="400">e</text>
    <text x="52.3" y="71" fill="#eef4ff" font-weight="400">c</text>
    <text x="59.5" y="71" fill="#eef4ff" font-weight="400">k</text>
    <text x="66.8" y="71" fill="#eef4ff" font-weight="400">b</text>
    <text x="74" y="71" fill="#eef4ff" font-weight="400">o</text>
    <text x="81.3" y="71" fill="#eef4ff" font-weight="400">x</text>
    <text x="88.5" y="71" fill="#eef4ff" font-weight="400">:</text>
    <text x="103" y="71" fill="#ef4444" font-weight="400">■</text>
    <text x="117.5" y="71" fill="#eef4ff" font-weight="400">/</text>
    <text x="132" y="71" fill="#6b7280" font-weight="400">□</text>
    <text x="16" y="85.5" fill="#6b7280" font-weight="400">║</text>
    <text x="30.5" y="85.5" fill="#eef4ff" font-weight="400">B</text>
    <text x="37.8" y="85.5" fill="#eef4ff" font-weight="400">o</text>
    <text x="45" y="85.5" fill="#eef4ff" font-weight="400">r</text>
    <text x="52.3" y="85.5" fill="#eef4ff" font-weight="400">d</text>
    <text x="59.5" y="85.5" fill="#eef4ff" font-weight="400">e</text>
    <text x="66.8" y="85.5" fill="#eef4ff" font-weight="400">r</text>
    <text x="74" y="85.5" fill="#eef4ff" font-weight="400">:</text>
    <text x="88.5" y="85.5" fill="#ef4444" font-weight="400">╔</text>
    <text x="95.8" y="85.5" fill="#ef4444" font-weight="400">╟</text>
    <text x="103" y="85.5" fill="#ef4444" font-weight="400">╚</text>
    <text x="16" y="100" fill="#6b7280" font-weight="400">║</text>
    <text x="30.5" y="100" fill="#eef4ff" font-weight="400">H</text>
    <text x="37.8" y="100" fill="#eef4ff" font-weight="400">i</text>
    <text x="45" y="100" fill="#eef4ff" font-weight="400">g</text>
    <text x="52.3" y="100" fill="#eef4ff" font-weight="400">h</text>
    <text x="59.5" y="100" fill="#eef4ff" font-weight="400">l</text>
    <text x="66.8" y="100" fill="#eef4ff" font-weight="400">i</text>
    <text x="74" y="100" fill="#eef4ff" font-weight="400">g</text>
    <text x="81.3" y="100" fill="#eef4ff" font-weight="400">h</text>
    <text x="88.5" y="100" fill="#eef4ff" font-weight="400">t</text>
    <text x="95.8" y="100" fill="#eef4ff" font-weight="400">:</text>
    <text x="110.3" y="100" fill="#eab308" font-weight="400">H</text>
    <text x="117.5" y="100" fill="#eab308" font-weight="400">i</text>
    <text x="124.8" y="100" fill="#eab308" font-weight="400">g</text>
    <text x="132" y="100" fill="#eab308" font-weight="400">h</text>
    <text x="139.3" y="100" fill="#eab308" font-weight="400">l</text>
    <text x="146.5" y="100" fill="#eab308" font-weight="400">i</text>
    <text x="153.8" y="100" fill="#eab308" font-weight="400">g</text>
    <text x="161" y="100" fill="#eab308" font-weight="400">h</text>
    <text x="168.3" y="100" fill="#eab308" font-weight="400">t</text>
    <text x="182.8" y="100" fill="#eab308" font-weight="400">t</text>
    <text x="190" y="100" fill="#eab308" font-weight="400">e</text>
    <text x="197.3" y="100" fill="#eab308" font-weight="400">x</text>
    <text x="204.5" y="100" fill="#eab308" font-weight="400">t</text>
    <text x="16" y="114.5" fill="#6b7280" font-weight="400">║</text>
    <text x="30.5" y="114.5" fill="#eef4ff" font-weight="400">I</text>
    <text x="37.8" y="114.5" fill="#eef4ff" font-weight="400">n</text>
    <text x="45" y="114.5" fill="#eef4ff" font-weight="400">v</text>
    <text x="52.3" y="114.5" fill="#eef4ff" font-weight="400">e</text>
    <text x="59.5" y="114.5" fill="#eef4ff" font-weight="400">r</text>
    <text x="66.8" y="114.5" fill="#eef4ff" font-weight="400">s</text>
    <text x="74" y="114.5" fill="#eef4ff" font-weight="400">e</text>
    <text x="81.3" y="114.5" fill="#eef4ff" font-weight="400">:</text>
    <rect x="95.8" y="103" width="7.3" height="14.5" fill="#f5f7fb" fill-opacity="0.9" />
    <rect x="103" y="103" width="7.3" height="14.5" fill="#f5f7fb" fill-opacity="0.9" />
    <text x="103" y="114.5" fill="#08111f" font-weight="400">I</text>
    <rect x="110.3" y="103" width="7.3" height="14.5" fill="#f5f7fb" fill-opacity="0.9" />
    <text x="110.3" y="114.5" fill="#08111f" font-weight="400">n</text>
    <rect x="117.5" y="103" width="7.3" height="14.5" fill="#f5f7fb" fill-opacity="0.9" />
    <text x="117.5" y="114.5" fill="#08111f" font-weight="400">v</text>
    <rect x="124.8" y="103" width="7.3" height="14.5" fill="#f5f7fb" fill-opacity="0.9" />
    <text x="124.8" y="114.5" fill="#08111f" font-weight="400">e</text>
    <rect x="132" y="103" width="7.3" height="14.5" fill="#f5f7fb" fill-opacity="0.9" />
    <text x="132" y="114.5" fill="#08111f" font-weight="400">r</text>
    <rect x="139.3" y="103" width="7.3" height="14.5" fill="#f5f7fb" fill-opacity="0.9" />
    <text x="139.3" y="114.5" fill="#08111f" font-weight="400">t</text>
    <rect x="146.5" y="103" width="7.3" height="14.5" fill="#f5f7fb" fill-opacity="0.9" />
    <text x="146.5" y="114.5" fill="#08111f" font-weight="400">e</text>
    <rect x="153.8" y="103" width="7.3" height="14.5" fill="#f5f7fb" fill-opacity="0.9" />
    <text x="153.8" y="114.5" fill="#08111f" font-weight="400">d</text>
    <rect x="161" y="103" width="7.3" height="14.5" fill="#f5f7fb" fill-opacity="0.9" />
    <rect x="168.3" y="103" width="7.3" height="14.5" fill="#f5f7fb" fill-opacity="0.9" />
    <text x="168.3" y="114.5" fill="#08111f" font-weight="400">l</text>
    <rect x="175.5" y="103" width="7.3" height="14.5" fill="#f5f7fb" fill-opacity="0.9" />
    <text x="175.5" y="114.5" fill="#08111f" font-weight="400">i</text>
    <rect x="182.8" y="103" width="7.3" height="14.5" fill="#f5f7fb" fill-opacity="0.9" />
    <text x="182.8" y="114.5" fill="#08111f" font-weight="400">n</text>
    <rect x="190" y="103" width="7.3" height="14.5" fill="#f5f7fb" fill-opacity="0.9" />
    <text x="190" y="114.5" fill="#08111f" font-weight="400">e</text>
    <rect x="197.3" y="103" width="7.3" height="14.5" fill="#f5f7fb" fill-opacity="0.9" />
    <text x="16" y="129" fill="#6b7280" font-weight="400">╚</text>
    <text x="23.3" y="129" fill="#6b7280" font-weight="400">═</text>
    <text x="30.5" y="129" fill="#6b7280" font-weight="400">═</text>
    <text x="37.8" y="129" fill="#6b7280" font-weight="400">═</text>
    <text x="45" y="129" fill="#6b7280" font-weight="400">═</text>
    <text x="52.3" y="129" fill="#6b7280" font-weight="400">═</text>
    <text x="59.5" y="129" fill="#6b7280" font-weight="400">═</text>
    <text x="66.8" y="129" fill="#6b7280" font-weight="400">═</text>
    <text x="74" y="129" fill="#6b7280" font-weight="400">═</text>
    <text x="81.3" y="129" fill="#6b7280" font-weight="400">═</text>
    <text x="88.5" y="129" fill="#6b7280" font-weight="400">═</text>
    <text x="95.8" y="129" fill="#6b7280" font-weight="400">═</text>
    <text x="103" y="129" fill="#6b7280" font-weight="400">═</text>
    <text x="110.3" y="129" fill="#6b7280" font-weight="400">═</text>
    <text x="117.5" y="129" fill="#6b7280" font-weight="400">═</text>
    <text x="124.8" y="129" fill="#6b7280" font-weight="400">═</text>
    <text x="132" y="129" fill="#6b7280" font-weight="400">═</text>
    <text x="139.3" y="129" fill="#6b7280" font-weight="400">═</text>
    <text x="146.5" y="129" fill="#6b7280" font-weight="400">═</text>
    <text x="16" y="143.5" fill="#6b7280" font-weight="400">╚</text>
    <text x="23.3" y="143.5" fill="#6b7280" font-weight="400">═</text>
    <text x="30.5" y="143.5" fill="#6b7280" font-weight="400">═</text>
    <text x="37.8" y="143.5" fill="#6b7280" font-weight="400">═</text>
    <text x="45" y="143.5" fill="#6b7280" font-weight="400">═</text>
    <text x="52.3" y="143.5" fill="#6b7280" font-weight="400">═</text>
    <text x="59.5" y="143.5" fill="#6b7280" font-weight="400">═</text>
    <text x="66.8" y="143.5" fill="#6b7280" font-weight="400">═</text>
    <text x="74" y="143.5" fill="#6b7280" font-weight="400">═</text>
    <text x="81.3" y="143.5" fill="#6b7280" font-weight="400">═</text>
    <text x="88.5" y="143.5" fill="#6b7280" font-weight="400">═</text>
    <text x="95.8" y="143.5" fill="#6b7280" font-weight="400">═</text>
    <text x="103" y="143.5" fill="#6b7280" font-weight="400">═</text>
    <text x="110.3" y="143.5" fill="#6b7280" font-weight="400">═</text>
    <text x="117.5" y="143.5" fill="#6b7280" font-weight="400">═</text>
    <text x="124.8" y="143.5" fill="#6b7280" font-weight="400">═</text>
    <text x="132" y="143.5" fill="#6b7280" font-weight="400">═</text>
    <text x="139.3" y="143.5" fill="#6b7280" font-weight="400">═</text>
    <text x="146.5" y="143.5" fill="#6b7280" font-weight="400">═</text>
    <text x="153.8" y="143.5" fill="#6b7280" font-weight="400">═</text>
    <text x="161" y="143.5" fill="#6b7280" font-weight="400">═</text>
    <text x="168.3" y="143.5" fill="#6b7280" font-weight="400">═</text>
    <text x="175.5" y="143.5" fill="#6b7280" font-weight="400">═</text>
    <text x="182.8" y="143.5" fill="#6b7280" font-weight="400">═</text>
    <text x="190" y="143.5" fill="#6b7280" font-weight="400">═</text>
    <text x="197.3" y="143.5" fill="#6b7280" font-weight="400">═</text>
    <text x="16" y="158" fill="#eef4ff" font-weight="400" opacity=".62">↑</text>
    <text x="23.3" y="158" fill="#eef4ff" font-weight="400" opacity=".62">↓</text>
    <text x="37.8" y="158" fill="#eef4ff" font-weight="400" opacity=".62">t</text>
    <text x="45" y="158" fill="#eef4ff" font-weight="400" opacity=".62">o</text>
    <text x="59.5" y="158" fill="#eef4ff" font-weight="400" opacity=".62">b</text>
    <text x="66.8" y="158" fill="#eef4ff" font-weight="400" opacity=".62">r</text>
    <text x="74" y="158" fill="#eef4ff" font-weight="400" opacity=".62">o</text>
    <text x="81.3" y="158" fill="#eef4ff" font-weight="400" opacity=".62">w</text>
    <text x="88.5" y="158" fill="#eef4ff" font-weight="400" opacity=".62">s</text>
    <text x="95.8" y="158" fill="#eef4ff" font-weight="400" opacity=".62">e</text>
    <text x="110.3" y="158" fill="#eef4ff" font-weight="400" opacity=".62">•</text>
    <text x="124.8" y="158" fill="#eef4ff" font-weight="400" opacity=".62">E</text>
    <text x="132" y="158" fill="#eef4ff" font-weight="400" opacity=".62">n</text>
    <text x="139.3" y="158" fill="#eef4ff" font-weight="400" opacity=".62">t</text>
    <text x="146.5" y="158" fill="#eef4ff" font-weight="400" opacity=".62">e</text>
    <text x="153.8" y="158" fill="#eef4ff" font-weight="400" opacity=".62">r</text>
    <text x="168.3" y="158" fill="#eef4ff" font-weight="400" opacity=".62">t</text>
    <text x="175.5" y="158" fill="#eef4ff" font-weight="400" opacity=".62">o</text>
    <text x="190" y="158" fill="#eef4ff" font-weight="400" opacity=".62">p</text>
    <text x="197.3" y="158" fill="#eef4ff" font-weight="400" opacity=".62">r</text>
    <text x="204.5" y="158" fill="#eef4ff" font-weight="400" opacity=".62">e</text>
    <text x="211.8" y="158" fill="#eef4ff" font-weight="400" opacity=".62">v</text>
    <text x="219" y="158" fill="#eef4ff" font-weight="400" opacity=".62">i</text>
    <text x="226.3" y="158" fill="#eef4ff" font-weight="400" opacity=".62">e</text>
    <text x="233.5" y="158" fill="#eef4ff" font-weight="400" opacity=".62">w</text>
    <text x="248" y="158" fill="#eef4ff" font-weight="400" opacity=".62">p</text>
    <text x="255.3" y="158" fill="#eef4ff" font-weight="400" opacity=".62">r</text>
    <text x="262.5" y="158" fill="#eef4ff" font-weight="400" opacity=".62">o</text>
    <text x="269.8" y="158" fill="#eef4ff" font-weight="400" opacity=".62">m</text>
    <text x="277" y="158" fill="#eef4ff" font-weight="400" opacity=".62">p</text>
    <text x="284.3" y="158" fill="#eef4ff" font-weight="400" opacity=".62">t</text>
    <text x="298.8" y="158" fill="#eef4ff" font-weight="400" opacity=".62">•</text>
    <text x="313.3" y="158" fill="#eef4ff" font-weight="400" opacity=".62">E</text>
    <text x="320.5" y="158" fill="#eef4ff" font-weight="400" opacity=".62">s</text>
    <text x="327.8" y="158" fill="#eef4ff" font-weight="400" opacity=".62">c</text>
    <text x="342.3" y="158" fill="#eef4ff" font-weight="400" opacity=".62">t</text>
    <text x="349.5" y="158" fill="#eef4ff" font-weight="400" opacity=".62">o</text>
    <text x="364" y="158" fill="#eef4ff" font-weight="400" opacity=".62">e</text>
    <text x="371.3" y="158" fill="#eef4ff" font-weight="400" opacity=".62">x</text>
    <text x="378.5" y="158" fill="#eef4ff" font-weight="400" opacity=".62">i</text>
    <text x="385.8" y="158" fill="#eef4ff" font-weight="400" opacity=".62">t</text>
  </g>
  <rect x="409" y="0" width="409" height="177" fill="#0b111d"/>
  <line x1="409" y1="0" x2="409" y2="177" stroke="#ffffff" stroke-opacity="0.14"/>
  <g font-family="SFMono-Regular, 'SF Mono', 'JetBrains Mono', Menlo, Monaco, 'Cascadia Mono', 'DejaVu Sans Mono', Consolas, 'Liberation Mono', 'Courier New', monospace" font-size="11.5" font-variant-ligatures="none" xml:space="preserve">
    <text x="425" y="27.5" fill="#22c55e" font-weight="800">╭</text>
    <text x="432.3" y="27.5" fill="#22c55e" font-weight="800">─</text>
    <text x="446.8" y="27.5" fill="#22c55e" font-weight="800">T</text>
    <text x="454" y="27.5" fill="#22c55e" font-weight="800">h</text>
    <text x="461.3" y="27.5" fill="#22c55e" font-weight="800">e</text>
    <text x="468.5" y="27.5" fill="#22c55e" font-weight="800">m</text>
    <text x="475.8" y="27.5" fill="#22c55e" font-weight="800">e</text>
    <text x="490.3" y="27.5" fill="#22c55e" font-weight="800">P</text>
    <text x="497.5" y="27.5" fill="#22c55e" font-weight="800">r</text>
    <text x="504.8" y="27.5" fill="#22c55e" font-weight="800">e</text>
    <text x="512" y="27.5" fill="#22c55e" font-weight="800">v</text>
    <text x="519.3" y="27.5" fill="#22c55e" font-weight="800">i</text>
    <text x="526.5" y="27.5" fill="#22c55e" font-weight="800">e</text>
    <text x="533.8" y="27.5" fill="#22c55e" font-weight="800">w</text>
    <text x="548.3" y="27.5" fill="#22c55e" font-weight="800">─</text>
    <text x="555.5" y="27.5" fill="#22c55e" font-weight="800">╮</text>
    <text x="425" y="42" fill="#6b7280" font-weight="400">│</text>
    <text x="439.5" y="42" fill="#eef4ff" font-weight="400" opacity=".62">T</text>
    <text x="446.8" y="42" fill="#eef4ff" font-weight="400" opacity=".62">h</text>
    <text x="454" y="42" fill="#eef4ff" font-weight="400" opacity=".62">e</text>
    <text x="461.3" y="42" fill="#eef4ff" font-weight="400" opacity=".62">m</text>
    <text x="468.5" y="42" fill="#eef4ff" font-weight="400" opacity=".62">e</text>
    <text x="475.8" y="42" fill="#eef4ff" font-weight="400" opacity=".62">:</text>
    <text x="490.3" y="42" fill="#22c55e" font-weight="400">M</text>
    <text x="497.5" y="42" fill="#22c55e" font-weight="400">a</text>
    <text x="504.8" y="42" fill="#22c55e" font-weight="400">t</text>
    <text x="512" y="42" fill="#22c55e" font-weight="400">r</text>
    <text x="519.3" y="42" fill="#22c55e" font-weight="400">i</text>
    <text x="526.5" y="42" fill="#22c55e" font-weight="400">x</text>
    <text x="425" y="56.5" fill="#6b7280" font-weight="400">│</text>
    <text x="439.5" y="56.5" fill="#eef4ff" font-weight="400">A</text>
    <text x="446.8" y="56.5" fill="#eef4ff" font-weight="400">r</text>
    <text x="454" y="56.5" fill="#eef4ff" font-weight="400">r</text>
    <text x="461.3" y="56.5" fill="#eef4ff" font-weight="400">o</text>
    <text x="468.5" y="56.5" fill="#eef4ff" font-weight="400">w</text>
    <text x="475.8" y="56.5" fill="#eef4ff" font-weight="400">:</text>
    <text x="490.3" y="56.5" fill="#22c55e" font-weight="400">❯</text>
    <text x="425" y="71" fill="#6b7280" font-weight="400">│</text>
    <text x="439.5" y="71" fill="#eef4ff" font-weight="400">C</text>
    <text x="446.8" y="71" fill="#eef4ff" font-weight="400">h</text>
    <text x="454" y="71" fill="#eef4ff" font-weight="400">e</text>
    <text x="461.3" y="71" fill="#eef4ff" font-weight="400">c</text>
    <text x="468.5" y="71" fill="#eef4ff" font-weight="400">k</text>
    <text x="475.8" y="71" fill="#eef4ff" font-weight="400">b</text>
    <text x="483" y="71" fill="#eef4ff" font-weight="400">o</text>
    <text x="490.3" y="71" fill="#eef4ff" font-weight="400">x</text>
    <text x="497.5" y="71" fill="#eef4ff" font-weight="400">:</text>
    <text x="512" y="71" fill="#22c55e" font-weight="400">◉</text>
    <text x="526.5" y="71" fill="#eef4ff" font-weight="400">/</text>
    <text x="541" y="71" fill="#6b7280" font-weight="400">○</text>
    <text x="425" y="85.5" fill="#6b7280" font-weight="400">│</text>
    <text x="439.5" y="85.5" fill="#eef4ff" font-weight="400">B</text>
    <text x="446.8" y="85.5" fill="#eef4ff" font-weight="400">o</text>
    <text x="454" y="85.5" fill="#eef4ff" font-weight="400">r</text>
    <text x="461.3" y="85.5" fill="#eef4ff" font-weight="400">d</text>
    <text x="468.5" y="85.5" fill="#eef4ff" font-weight="400">e</text>
    <text x="475.8" y="85.5" fill="#eef4ff" font-weight="400">r</text>
    <text x="483" y="85.5" fill="#eef4ff" font-weight="400">:</text>
    <text x="497.5" y="85.5" fill="#22c55e" font-weight="400">╭</text>
    <text x="504.8" y="85.5" fill="#22c55e" font-weight="400">├</text>
    <text x="512" y="85.5" fill="#22c55e" font-weight="400">╰</text>
    <text x="425" y="100" fill="#6b7280" font-weight="400">│</text>
    <text x="439.5" y="100" fill="#eef4ff" font-weight="400">H</text>
    <text x="446.8" y="100" fill="#eef4ff" font-weight="400">i</text>
    <text x="454" y="100" fill="#eef4ff" font-weight="400">g</text>
    <text x="461.3" y="100" fill="#eef4ff" font-weight="400">h</text>
    <text x="468.5" y="100" fill="#eef4ff" font-weight="400">l</text>
    <text x="475.8" y="100" fill="#eef4ff" font-weight="400">i</text>
    <text x="483" y="100" fill="#eef4ff" font-weight="400">g</text>
    <text x="490.3" y="100" fill="#eef4ff" font-weight="400">h</text>
    <text x="497.5" y="100" fill="#eef4ff" font-weight="400">t</text>
    <text x="504.8" y="100" fill="#eef4ff" font-weight="400">:</text>
    <text x="519.3" y="100" fill="#4ade80" font-weight="400">H</text>
    <text x="526.5" y="100" fill="#4ade80" font-weight="400">i</text>
    <text x="533.8" y="100" fill="#4ade80" font-weight="400">g</text>
    <text x="541" y="100" fill="#4ade80" font-weight="400">h</text>
    <text x="548.3" y="100" fill="#4ade80" font-weight="400">l</text>
    <text x="555.5" y="100" fill="#4ade80" font-weight="400">i</text>
    <text x="562.8" y="100" fill="#4ade80" font-weight="400">g</text>
    <text x="570" y="100" fill="#4ade80" font-weight="400">h</text>
    <text x="577.3" y="100" fill="#4ade80" font-weight="400">t</text>
    <text x="591.8" y="100" fill="#4ade80" font-weight="400">t</text>
    <text x="599" y="100" fill="#4ade80" font-weight="400">e</text>
    <text x="606.3" y="100" fill="#4ade80" font-weight="400">x</text>
    <text x="613.5" y="100" fill="#4ade80" font-weight="400">t</text>
    <text x="425" y="114.5" fill="#6b7280" font-weight="400">│</text>
    <text x="439.5" y="114.5" fill="#eef4ff" font-weight="400">I</text>
    <text x="446.8" y="114.5" fill="#eef4ff" font-weight="400">n</text>
    <text x="454" y="114.5" fill="#eef4ff" font-weight="400">v</text>
    <text x="461.3" y="114.5" fill="#eef4ff" font-weight="400">e</text>
    <text x="468.5" y="114.5" fill="#eef4ff" font-weight="400">r</text>
    <text x="475.8" y="114.5" fill="#eef4ff" font-weight="400">s</text>
    <text x="483" y="114.5" fill="#eef4ff" font-weight="400">e</text>
    <text x="490.3" y="114.5" fill="#eef4ff" font-weight="400">:</text>
    <rect x="504.8" y="103" width="7.3" height="14.5" fill="#f5f7fb" fill-opacity="0.9" />
    <rect x="512" y="103" width="7.3" height="14.5" fill="#f5f7fb" fill-opacity="0.9" />
    <text x="512" y="114.5" fill="#08111f" font-weight="400">I</text>
    <rect x="519.3" y="103" width="7.3" height="14.5" fill="#f5f7fb" fill-opacity="0.9" />
    <text x="519.3" y="114.5" fill="#08111f" font-weight="400">n</text>
    <rect x="526.5" y="103" width="7.3" height="14.5" fill="#f5f7fb" fill-opacity="0.9" />
    <text x="526.5" y="114.5" fill="#08111f" font-weight="400">v</text>
    <rect x="533.8" y="103" width="7.3" height="14.5" fill="#f5f7fb" fill-opacity="0.9" />
    <text x="533.8" y="114.5" fill="#08111f" font-weight="400">e</text>
    <rect x="541" y="103" width="7.3" height="14.5" fill="#f5f7fb" fill-opacity="0.9" />
    <text x="541" y="114.5" fill="#08111f" font-weight="400">r</text>
    <rect x="548.3" y="103" width="7.3" height="14.5" fill="#f5f7fb" fill-opacity="0.9" />
    <text x="548.3" y="114.5" fill="#08111f" font-weight="400">t</text>
    <rect x="555.5" y="103" width="7.3" height="14.5" fill="#f5f7fb" fill-opacity="0.9" />
    <text x="555.5" y="114.5" fill="#08111f" font-weight="400">e</text>
    <rect x="562.8" y="103" width="7.3" height="14.5" fill="#f5f7fb" fill-opacity="0.9" />
    <text x="562.8" y="114.5" fill="#08111f" font-weight="400">d</text>
    <rect x="570" y="103" width="7.3" height="14.5" fill="#f5f7fb" fill-opacity="0.9" />
    <rect x="577.3" y="103" width="7.3" height="14.5" fill="#f5f7fb" fill-opacity="0.9" />
    <text x="577.3" y="114.5" fill="#08111f" font-weight="400">l</text>
    <rect x="584.5" y="103" width="7.3" height="14.5" fill="#f5f7fb" fill-opacity="0.9" />
    <text x="584.5" y="114.5" fill="#08111f" font-weight="400">i</text>
    <rect x="591.8" y="103" width="7.3" height="14.5" fill="#f5f7fb" fill-opacity="0.9" />
    <text x="591.8" y="114.5" fill="#08111f" font-weight="400">n</text>
    <rect x="599" y="103" width="7.3" height="14.5" fill="#f5f7fb" fill-opacity="0.9" />
    <text x="599" y="114.5" fill="#08111f" font-weight="400">e</text>
    <rect x="606.3" y="103" width="7.3" height="14.5" fill="#f5f7fb" fill-opacity="0.9" />
    <text x="425" y="129" fill="#6b7280" font-weight="400">╰</text>
    <text x="432.3" y="129" fill="#6b7280" font-weight="400">─</text>
    <text x="439.5" y="129" fill="#6b7280" font-weight="400">─</text>
    <text x="446.8" y="129" fill="#6b7280" font-weight="400">─</text>
    <text x="454" y="129" fill="#6b7280" font-weight="400">─</text>
    <text x="461.3" y="129" fill="#6b7280" font-weight="400">─</text>
    <text x="468.5" y="129" fill="#6b7280" font-weight="400">─</text>
    <text x="475.8" y="129" fill="#6b7280" font-weight="400">─</text>
    <text x="483" y="129" fill="#6b7280" font-weight="400">─</text>
    <text x="490.3" y="129" fill="#6b7280" font-weight="400">─</text>
    <text x="497.5" y="129" fill="#6b7280" font-weight="400">─</text>
    <text x="504.8" y="129" fill="#6b7280" font-weight="400">─</text>
    <text x="512" y="129" fill="#6b7280" font-weight="400">─</text>
    <text x="519.3" y="129" fill="#6b7280" font-weight="400">─</text>
    <text x="526.5" y="129" fill="#6b7280" font-weight="400">─</text>
    <text x="533.8" y="129" fill="#6b7280" font-weight="400">─</text>
    <text x="541" y="129" fill="#6b7280" font-weight="400">─</text>
    <text x="548.3" y="129" fill="#6b7280" font-weight="400">─</text>
    <text x="555.5" y="129" fill="#6b7280" font-weight="400">─</text>
    <text x="425" y="143.5" fill="#6b7280" font-weight="400">╰</text>
    <text x="432.3" y="143.5" fill="#6b7280" font-weight="400">─</text>
    <text x="439.5" y="143.5" fill="#6b7280" font-weight="400">─</text>
    <text x="446.8" y="143.5" fill="#6b7280" font-weight="400">─</text>
    <text x="454" y="143.5" fill="#6b7280" font-weight="400">─</text>
    <text x="461.3" y="143.5" fill="#6b7280" font-weight="400">─</text>
    <text x="468.5" y="143.5" fill="#6b7280" font-weight="400">─</text>
    <text x="475.8" y="143.5" fill="#6b7280" font-weight="400">─</text>
    <text x="483" y="143.5" fill="#6b7280" font-weight="400">─</text>
    <text x="490.3" y="143.5" fill="#6b7280" font-weight="400">─</text>
    <text x="497.5" y="143.5" fill="#6b7280" font-weight="400">─</text>
    <text x="504.8" y="143.5" fill="#6b7280" font-weight="400">─</text>
    <text x="512" y="143.5" fill="#6b7280" font-weight="400">─</text>
    <text x="519.3" y="143.5" fill="#6b7280" font-weight="400">─</text>
    <text x="526.5" y="143.5" fill="#6b7280" font-weight="400">─</text>
    <text x="533.8" y="143.5" fill="#6b7280" font-weight="400">─</text>
    <text x="541" y="143.5" fill="#6b7280" font-weight="400">─</text>
    <text x="548.3" y="143.5" fill="#6b7280" font-weight="400">─</text>
    <text x="555.5" y="143.5" fill="#6b7280" font-weight="400">─</text>
    <text x="562.8" y="143.5" fill="#6b7280" font-weight="400">─</text>
    <text x="570" y="143.5" fill="#6b7280" font-weight="400">─</text>
    <text x="577.3" y="143.5" fill="#6b7280" font-weight="400">─</text>
    <text x="584.5" y="143.5" fill="#6b7280" font-weight="400">─</text>
    <text x="591.8" y="143.5" fill="#6b7280" font-weight="400">─</text>
    <text x="599" y="143.5" fill="#6b7280" font-weight="400">─</text>
    <text x="606.3" y="143.5" fill="#6b7280" font-weight="400">─</text>
    <text x="425" y="158" fill="#eef4ff" font-weight="400" opacity=".62">↑</text>
    <text x="432.3" y="158" fill="#eef4ff" font-weight="400" opacity=".62">↓</text>
    <text x="446.8" y="158" fill="#eef4ff" font-weight="400" opacity=".62">t</text>
    <text x="454" y="158" fill="#eef4ff" font-weight="400" opacity=".62">o</text>
    <text x="468.5" y="158" fill="#eef4ff" font-weight="400" opacity=".62">b</text>
    <text x="475.8" y="158" fill="#eef4ff" font-weight="400" opacity=".62">r</text>
    <text x="483" y="158" fill="#eef4ff" font-weight="400" opacity=".62">o</text>
    <text x="490.3" y="158" fill="#eef4ff" font-weight="400" opacity=".62">w</text>
    <text x="497.5" y="158" fill="#eef4ff" font-weight="400" opacity=".62">s</text>
    <text x="504.8" y="158" fill="#eef4ff" font-weight="400" opacity=".62">e</text>
    <text x="519.3" y="158" fill="#eef4ff" font-weight="400" opacity=".62">•</text>
    <text x="533.8" y="158" fill="#eef4ff" font-weight="400" opacity=".62">E</text>
    <text x="541" y="158" fill="#eef4ff" font-weight="400" opacity=".62">n</text>
    <text x="548.3" y="158" fill="#eef4ff" font-weight="400" opacity=".62">t</text>
    <text x="555.5" y="158" fill="#eef4ff" font-weight="400" opacity=".62">e</text>
    <text x="562.8" y="158" fill="#eef4ff" font-weight="400" opacity=".62">r</text>
    <text x="577.3" y="158" fill="#eef4ff" font-weight="400" opacity=".62">t</text>
    <text x="584.5" y="158" fill="#eef4ff" font-weight="400" opacity=".62">o</text>
    <text x="599" y="158" fill="#eef4ff" font-weight="400" opacity=".62">p</text>
    <text x="606.3" y="158" fill="#eef4ff" font-weight="400" opacity=".62">r</text>
    <text x="613.5" y="158" fill="#eef4ff" font-weight="400" opacity=".62">e</text>
    <text x="620.8" y="158" fill="#eef4ff" font-weight="400" opacity=".62">v</text>
    <text x="628" y="158" fill="#eef4ff" font-weight="400" opacity=".62">i</text>
    <text x="635.3" y="158" fill="#eef4ff" font-weight="400" opacity=".62">e</text>
    <text x="642.5" y="158" fill="#eef4ff" font-weight="400" opacity=".62">w</text>
    <text x="657" y="158" fill="#eef4ff" font-weight="400" opacity=".62">p</text>
    <text x="664.3" y="158" fill="#eef4ff" font-weight="400" opacity=".62">r</text>
    <text x="671.5" y="158" fill="#eef4ff" font-weight="400" opacity=".62">o</text>
    <text x="678.8" y="158" fill="#eef4ff" font-weight="400" opacity=".62">m</text>
    <text x="686" y="158" fill="#eef4ff" font-weight="400" opacity=".62">p</text>
    <text x="693.3" y="158" fill="#eef4ff" font-weight="400" opacity=".62">t</text>
    <text x="707.8" y="158" fill="#eef4ff" font-weight="400" opacity=".62">•</text>
    <text x="722.3" y="158" fill="#eef4ff" font-weight="400" opacity=".62">E</text>
    <text x="729.5" y="158" fill="#eef4ff" font-weight="400" opacity=".62">s</text>
    <text x="736.8" y="158" fill="#eef4ff" font-weight="400" opacity=".62">c</text>
    <text x="751.3" y="158" fill="#eef4ff" font-weight="400" opacity=".62">t</text>
    <text x="758.5" y="158" fill="#eef4ff" font-weight="400" opacity=".62">o</text>
    <text x="773" y="158" fill="#eef4ff" font-weight="400" opacity=".62">e</text>
    <text x="780.3" y="158" fill="#eef4ff" font-weight="400" opacity=".62">x</text>
    <text x="787.5" y="158" fill="#eef4ff" font-weight="400" opacity=".62">i</text>
    <text x="794.8" y="158" fill="#eef4ff" font-weight="400" opacity=".62">t</text>
  </g>
  <rect x="818" y="0" width="409" height="177" fill="#080d16"/>
  <line x1="818" y1="0" x2="818" y2="177" stroke="#ffffff" stroke-opacity="0.14"/>
  <g font-family="SFMono-Regular, 'SF Mono', 'JetBrains Mono', Menlo, Monaco, 'Cascadia Mono', 'DejaVu Sans Mono', Consolas, 'Liberation Mono', 'Courier New', monospace" font-size="11.5" font-variant-ligatures="none" xml:space="preserve">
    <text x="834" y="27.5" fill="#875fff" font-weight="800">⸢</text>
    <text x="841.3" y="27.5" fill="#875fff" font-weight="800">─</text>
    <text x="855.8" y="27.5" fill="#875fff" font-weight="800">T</text>
    <text x="863" y="27.5" fill="#875fff" font-weight="800">h</text>
    <text x="870.3" y="27.5" fill="#875fff" font-weight="800">e</text>
    <text x="877.5" y="27.5" fill="#875fff" font-weight="800">m</text>
    <text x="884.8" y="27.5" fill="#875fff" font-weight="800">e</text>
    <text x="899.3" y="27.5" fill="#875fff" font-weight="800">P</text>
    <text x="906.5" y="27.5" fill="#875fff" font-weight="800">r</text>
    <text x="913.8" y="27.5" fill="#875fff" font-weight="800">e</text>
    <text x="921" y="27.5" fill="#875fff" font-weight="800">v</text>
    <text x="928.3" y="27.5" fill="#875fff" font-weight="800">i</text>
    <text x="935.5" y="27.5" fill="#875fff" font-weight="800">e</text>
    <text x="942.8" y="27.5" fill="#875fff" font-weight="800">w</text>
    <text x="957.3" y="27.5" fill="#875fff" font-weight="800">─</text>
    <text x="964.5" y="27.5" fill="#875fff" font-weight="800">⸣</text>
    <text x="834" y="42" fill="#6b7280" font-weight="400">⁞</text>
    <text x="848.5" y="42" fill="#eef4ff" font-weight="400" opacity=".62">T</text>
    <text x="855.8" y="42" fill="#eef4ff" font-weight="400" opacity=".62">h</text>
    <text x="863" y="42" fill="#eef4ff" font-weight="400" opacity=".62">e</text>
    <text x="870.3" y="42" fill="#eef4ff" font-weight="400" opacity=".62">m</text>
    <text x="877.5" y="42" fill="#eef4ff" font-weight="400" opacity=".62">e</text>
    <text x="884.8" y="42" fill="#eef4ff" font-weight="400" opacity=".62">:</text>
    <text x="899.3" y="42" fill="#af87ff" font-weight="400">A</text>
    <text x="906.5" y="42" fill="#af87ff" font-weight="400">r</text>
    <text x="913.8" y="42" fill="#af87ff" font-weight="400">c</text>
    <text x="921" y="42" fill="#af87ff" font-weight="400">a</text>
    <text x="928.3" y="42" fill="#af87ff" font-weight="400">n</text>
    <text x="935.5" y="42" fill="#af87ff" font-weight="400">e</text>
    <text x="834" y="56.5" fill="#6b7280" font-weight="400">⁞</text>
    <text x="848.5" y="56.5" fill="#eef4ff" font-weight="400">A</text>
    <text x="855.8" y="56.5" fill="#eef4ff" font-weight="400">r</text>
    <text x="863" y="56.5" fill="#eef4ff" font-weight="400">r</text>
    <text x="870.3" y="56.5" fill="#eef4ff" font-weight="400">o</text>
    <text x="877.5" y="56.5" fill="#eef4ff" font-weight="400">w</text>
    <text x="884.8" y="56.5" fill="#eef4ff" font-weight="400">:</text>
    <text x="899.3" y="56.5" fill="#af87ff" font-weight="400">⊳</text>
    <text x="834" y="71" fill="#6b7280" font-weight="400">⁞</text>
    <text x="848.5" y="71" fill="#eef4ff" font-weight="400">C</text>
    <text x="855.8" y="71" fill="#eef4ff" font-weight="400">h</text>
    <text x="863" y="71" fill="#eef4ff" font-weight="400">e</text>
    <text x="870.3" y="71" fill="#eef4ff" font-weight="400">c</text>
    <text x="877.5" y="71" fill="#eef4ff" font-weight="400">k</text>
    <text x="884.8" y="71" fill="#eef4ff" font-weight="400">b</text>
    <text x="892" y="71" fill="#eef4ff" font-weight="400">o</text>
    <text x="899.3" y="71" fill="#eef4ff" font-weight="400">x</text>
    <text x="906.5" y="71" fill="#eef4ff" font-weight="400">:</text>
    <text x="921" y="71" fill="#ffd700" font-weight="400">⬢</text>
    <text x="935.5" y="71" fill="#eef4ff" font-weight="400">/</text>
    <text x="950" y="71" fill="#585858" font-weight="400">⬡</text>
    <text x="834" y="85.5" fill="#6b7280" font-weight="400">⁞</text>
    <text x="848.5" y="85.5" fill="#eef4ff" font-weight="400">B</text>
    <text x="855.8" y="85.5" fill="#eef4ff" font-weight="400">o</text>
    <text x="863" y="85.5" fill="#eef4ff" font-weight="400">r</text>
    <text x="870.3" y="85.5" fill="#eef4ff" font-weight="400">d</text>
    <text x="877.5" y="85.5" fill="#eef4ff" font-weight="400">e</text>
    <text x="884.8" y="85.5" fill="#eef4ff" font-weight="400">r</text>
    <text x="892" y="85.5" fill="#eef4ff" font-weight="400">:</text>
    <text x="906.5" y="85.5" fill="#875fff" font-weight="400">⸢</text>
    <text x="913.8" y="85.5" fill="#875fff" font-weight="400">⊢</text>
    <text x="921" y="85.5" fill="#875fff" font-weight="400">⸤</text>
    <text x="834" y="100" fill="#6b7280" font-weight="400">⁞</text>
    <text x="848.5" y="100" fill="#eef4ff" font-weight="400">H</text>
    <text x="855.8" y="100" fill="#eef4ff" font-weight="400">i</text>
    <text x="863" y="100" fill="#eef4ff" font-weight="400">g</text>
    <text x="870.3" y="100" fill="#eef4ff" font-weight="400">h</text>
    <text x="877.5" y="100" fill="#eef4ff" font-weight="400">l</text>
    <text x="884.8" y="100" fill="#eef4ff" font-weight="400">i</text>
    <text x="892" y="100" fill="#eef4ff" font-weight="400">g</text>
    <text x="899.3" y="100" fill="#eef4ff" font-weight="400">h</text>
    <text x="906.5" y="100" fill="#eef4ff" font-weight="400">t</text>
    <text x="913.8" y="100" fill="#eef4ff" font-weight="400">:</text>
    <text x="928.3" y="100" fill="#ffd700" font-weight="400">H</text>
    <text x="935.5" y="100" fill="#ffd700" font-weight="400">i</text>
    <text x="942.8" y="100" fill="#ffd700" font-weight="400">g</text>
    <text x="950" y="100" fill="#ffd700" font-weight="400">h</text>
    <text x="957.3" y="100" fill="#ffd700" font-weight="400">l</text>
    <text x="964.5" y="100" fill="#ffd700" font-weight="400">i</text>
    <text x="971.8" y="100" fill="#ffd700" font-weight="400">g</text>
    <text x="979" y="100" fill="#ffd700" font-weight="400">h</text>
    <text x="986.3" y="100" fill="#ffd700" font-weight="400">t</text>
    <text x="1000.8" y="100" fill="#ffd700" font-weight="400">t</text>
    <text x="1008" y="100" fill="#ffd700" font-weight="400">e</text>
    <text x="1015.3" y="100" fill="#ffd700" font-weight="400">x</text>
    <text x="1022.5" y="100" fill="#ffd700" font-weight="400">t</text>
    <text x="834" y="114.5" fill="#6b7280" font-weight="400">⁞</text>
    <text x="848.5" y="114.5" fill="#eef4ff" font-weight="400">I</text>
    <text x="855.8" y="114.5" fill="#eef4ff" font-weight="400">n</text>
    <text x="863" y="114.5" fill="#eef4ff" font-weight="400">v</text>
    <text x="870.3" y="114.5" fill="#eef4ff" font-weight="400">e</text>
    <text x="877.5" y="114.5" fill="#eef4ff" font-weight="400">r</text>
    <text x="884.8" y="114.5" fill="#eef4ff" font-weight="400">s</text>
    <text x="892" y="114.5" fill="#eef4ff" font-weight="400">e</text>
    <text x="899.3" y="114.5" fill="#eef4ff" font-weight="400">:</text>
    <rect x="913.8" y="103" width="7.3" height="14.5" fill="#f5f7fb" fill-opacity="0.9" />
    <rect x="921" y="103" width="7.3" height="14.5" fill="#f5f7fb" fill-opacity="0.9" />
    <text x="921" y="114.5" fill="#08111f" font-weight="400">I</text>
    <rect x="928.3" y="103" width="7.3" height="14.5" fill="#f5f7fb" fill-opacity="0.9" />
    <text x="928.3" y="114.5" fill="#08111f" font-weight="400">n</text>
    <rect x="935.5" y="103" width="7.3" height="14.5" fill="#f5f7fb" fill-opacity="0.9" />
    <text x="935.5" y="114.5" fill="#08111f" font-weight="400">v</text>
    <rect x="942.8" y="103" width="7.3" height="14.5" fill="#f5f7fb" fill-opacity="0.9" />
    <text x="942.8" y="114.5" fill="#08111f" font-weight="400">e</text>
    <rect x="950" y="103" width="7.3" height="14.5" fill="#f5f7fb" fill-opacity="0.9" />
    <text x="950" y="114.5" fill="#08111f" font-weight="400">r</text>
    <rect x="957.3" y="103" width="7.3" height="14.5" fill="#f5f7fb" fill-opacity="0.9" />
    <text x="957.3" y="114.5" fill="#08111f" font-weight="400">t</text>
    <rect x="964.5" y="103" width="7.3" height="14.5" fill="#f5f7fb" fill-opacity="0.9" />
    <text x="964.5" y="114.5" fill="#08111f" font-weight="400">e</text>
    <rect x="971.8" y="103" width="7.3" height="14.5" fill="#f5f7fb" fill-opacity="0.9" />
    <text x="971.8" y="114.5" fill="#08111f" font-weight="400">d</text>
    <rect x="979" y="103" width="7.3" height="14.5" fill="#f5f7fb" fill-opacity="0.9" />
    <rect x="986.3" y="103" width="7.3" height="14.5" fill="#f5f7fb" fill-opacity="0.9" />
    <text x="986.3" y="114.5" fill="#08111f" font-weight="400">l</text>
    <rect x="993.5" y="103" width="7.3" height="14.5" fill="#f5f7fb" fill-opacity="0.9" />
    <text x="993.5" y="114.5" fill="#08111f" font-weight="400">i</text>
    <rect x="1000.8" y="103" width="7.3" height="14.5" fill="#f5f7fb" fill-opacity="0.9" />
    <text x="1000.8" y="114.5" fill="#08111f" font-weight="400">n</text>
    <rect x="1008" y="103" width="7.3" height="14.5" fill="#f5f7fb" fill-opacity="0.9" />
    <text x="1008" y="114.5" fill="#08111f" font-weight="400">e</text>
    <rect x="1015.3" y="103" width="7.3" height="14.5" fill="#f5f7fb" fill-opacity="0.9" />
    <text x="834" y="129" fill="#6b7280" font-weight="400">⸤</text>
    <text x="841.3" y="129" fill="#6b7280" font-weight="400">─</text>
    <text x="848.5" y="129" fill="#6b7280" font-weight="400">─</text>
    <text x="855.8" y="129" fill="#6b7280" font-weight="400">─</text>
    <text x="863" y="129" fill="#6b7280" font-weight="400">─</text>
    <text x="870.3" y="129" fill="#6b7280" font-weight="400">─</text>
    <text x="877.5" y="129" fill="#6b7280" font-weight="400">─</text>
    <text x="884.8" y="129" fill="#6b7280" font-weight="400">─</text>
    <text x="892" y="129" fill="#6b7280" font-weight="400">─</text>
    <text x="899.3" y="129" fill="#6b7280" font-weight="400">─</text>
    <text x="906.5" y="129" fill="#6b7280" font-weight="400">─</text>
    <text x="913.8" y="129" fill="#6b7280" font-weight="400">─</text>
    <text x="921" y="129" fill="#6b7280" font-weight="400">─</text>
    <text x="928.3" y="129" fill="#6b7280" font-weight="400">─</text>
    <text x="935.5" y="129" fill="#6b7280" font-weight="400">─</text>
    <text x="942.8" y="129" fill="#6b7280" font-weight="400">─</text>
    <text x="950" y="129" fill="#6b7280" font-weight="400">─</text>
    <text x="957.3" y="129" fill="#6b7280" font-weight="400">─</text>
    <text x="964.5" y="129" fill="#6b7280" font-weight="400">─</text>
    <text x="834" y="143.5" fill="#6b7280" font-weight="400">⸤</text>
    <text x="841.3" y="143.5" fill="#6b7280" font-weight="400">─</text>
    <text x="848.5" y="143.5" fill="#6b7280" font-weight="400">─</text>
    <text x="855.8" y="143.5" fill="#6b7280" font-weight="400">─</text>
    <text x="863" y="143.5" fill="#6b7280" font-weight="400">─</text>
    <text x="870.3" y="143.5" fill="#6b7280" font-weight="400">─</text>
    <text x="877.5" y="143.5" fill="#6b7280" font-weight="400">─</text>
    <text x="884.8" y="143.5" fill="#6b7280" font-weight="400">─</text>
    <text x="892" y="143.5" fill="#6b7280" font-weight="400">─</text>
    <text x="899.3" y="143.5" fill="#6b7280" font-weight="400">─</text>
    <text x="906.5" y="143.5" fill="#6b7280" font-weight="400">─</text>
    <text x="913.8" y="143.5" fill="#6b7280" font-weight="400">─</text>
    <text x="921" y="143.5" fill="#6b7280" font-weight="400">─</text>
    <text x="928.3" y="143.5" fill="#6b7280" font-weight="400">─</text>
    <text x="935.5" y="143.5" fill="#6b7280" font-weight="400">─</text>
    <text x="942.8" y="143.5" fill="#6b7280" font-weight="400">─</text>
    <text x="950" y="143.5" fill="#6b7280" font-weight="400">─</text>
    <text x="957.3" y="143.5" fill="#6b7280" font-weight="400">─</text>
    <text x="964.5" y="143.5" fill="#6b7280" font-weight="400">─</text>
    <text x="971.8" y="143.5" fill="#6b7280" font-weight="400">─</text>
    <text x="979" y="143.5" fill="#6b7280" font-weight="400">─</text>
    <text x="986.3" y="143.5" fill="#6b7280" font-weight="400">─</text>
    <text x="993.5" y="143.5" fill="#6b7280" font-weight="400">─</text>
    <text x="1000.8" y="143.5" fill="#6b7280" font-weight="400">─</text>
    <text x="1008" y="143.5" fill="#6b7280" font-weight="400">─</text>
    <text x="1015.3" y="143.5" fill="#6b7280" font-weight="400">─</text>
    <text x="834" y="158" fill="#eef4ff" font-weight="400" opacity=".62">↑</text>
    <text x="841.3" y="158" fill="#eef4ff" font-weight="400" opacity=".62">↓</text>
    <text x="855.8" y="158" fill="#eef4ff" font-weight="400" opacity=".62">t</text>
    <text x="863" y="158" fill="#eef4ff" font-weight="400" opacity=".62">o</text>
    <text x="877.5" y="158" fill="#eef4ff" font-weight="400" opacity=".62">b</text>
    <text x="884.8" y="158" fill="#eef4ff" font-weight="400" opacity=".62">r</text>
    <text x="892" y="158" fill="#eef4ff" font-weight="400" opacity=".62">o</text>
    <text x="899.3" y="158" fill="#eef4ff" font-weight="400" opacity=".62">w</text>
    <text x="906.5" y="158" fill="#eef4ff" font-weight="400" opacity=".62">s</text>
    <text x="913.8" y="158" fill="#eef4ff" font-weight="400" opacity=".62">e</text>
    <text x="928.3" y="158" fill="#eef4ff" font-weight="400" opacity=".62">•</text>
    <text x="942.8" y="158" fill="#eef4ff" font-weight="400" opacity=".62">E</text>
    <text x="950" y="158" fill="#eef4ff" font-weight="400" opacity=".62">n</text>
    <text x="957.3" y="158" fill="#eef4ff" font-weight="400" opacity=".62">t</text>
    <text x="964.5" y="158" fill="#eef4ff" font-weight="400" opacity=".62">e</text>
    <text x="971.8" y="158" fill="#eef4ff" font-weight="400" opacity=".62">r</text>
    <text x="986.3" y="158" fill="#eef4ff" font-weight="400" opacity=".62">t</text>
    <text x="993.5" y="158" fill="#eef4ff" font-weight="400" opacity=".62">o</text>
    <text x="1008" y="158" fill="#eef4ff" font-weight="400" opacity=".62">p</text>
    <text x="1015.3" y="158" fill="#eef4ff" font-weight="400" opacity=".62">r</text>
    <text x="1022.5" y="158" fill="#eef4ff" font-weight="400" opacity=".62">e</text>
    <text x="1029.8" y="158" fill="#eef4ff" font-weight="400" opacity=".62">v</text>
    <text x="1037" y="158" fill="#eef4ff" font-weight="400" opacity=".62">i</text>
    <text x="1044.3" y="158" fill="#eef4ff" font-weight="400" opacity=".62">e</text>
    <text x="1051.5" y="158" fill="#eef4ff" font-weight="400" opacity=".62">w</text>
    <text x="1066" y="158" fill="#eef4ff" font-weight="400" opacity=".62">p</text>
    <text x="1073.3" y="158" fill="#eef4ff" font-weight="400" opacity=".62">r</text>
    <text x="1080.5" y="158" fill="#eef4ff" font-weight="400" opacity=".62">o</text>
    <text x="1087.8" y="158" fill="#eef4ff" font-weight="400" opacity=".62">m</text>
    <text x="1095" y="158" fill="#eef4ff" font-weight="400" opacity=".62">p</text>
    <text x="1102.3" y="158" fill="#eef4ff" font-weight="400" opacity=".62">t</text>
    <text x="1116.8" y="158" fill="#eef4ff" font-weight="400" opacity=".62">•</text>
    <text x="1131.3" y="158" fill="#eef4ff" font-weight="400" opacity=".62">E</text>
    <text x="1138.5" y="158" fill="#eef4ff" font-weight="400" opacity=".62">s</text>
    <text x="1145.8" y="158" fill="#eef4ff" font-weight="400" opacity=".62">c</text>
    <text x="1160.3" y="158" fill="#eef4ff" font-weight="400" opacity=".62">t</text>
    <text x="1167.5" y="158" fill="#eef4ff" font-weight="400" opacity=".62">o</text>
    <text x="1182" y="158" fill="#eef4ff" font-weight="400" opacity=".62">e</text>
    <text x="1189.3" y="158" fill="#eef4ff" font-weight="400" opacity=".62">x</text>
    <text x="1196.5" y="158" fill="#eef4ff" font-weight="400" opacity=".62">i</text>
    <text x="1203.8" y="158" fill="#eef4ff" font-weight="400" opacity=".62">t</text>
  </g>
</svg>
